<?xml version="1.0" encoding="UTF-8"?>
<svg xmlns="http://www.w3.org/2000/svg" xmlns:xlink="http://www.w3.org/1999/xlink" width="75pt" height="74.999997pt" viewBox="0 0 75 74.999997" version="1.2">
<defs>
<clipPath id="clip1">
  <path d="M 0 0 L 73.5 0 L 73.5 73.5 L 0 73.5 Z M 0 0 "/>
</clipPath>
<clipPath id="clip2">
  <path d="M 24 43 L 57 43 L 57 73.5 L 24 73.5 Z M 24 43 "/>
</clipPath>
</defs>
<g id="surface1">
<g clip-path="url(#clip1)" clip-rule="nonzero">
<path style=" stroke:none;fill-rule:nonzero;fill:rgb(89.7995%,66.668701%,9.01947%);fill-opacity:1;" d="M 0 36.890625 C 0 16.519531 16.519531 0 36.890625 0 C 57.261719 0 73.78125 16.519531 73.78125 36.890625 C 73.78125 57.261719 57.261719 73.78125 36.890625 73.78125 C 16.519531 73.78125 0 57.261719 0 36.890625 Z M 0 36.890625 "/>
</g>
<path style=" stroke:none;fill-rule:nonzero;fill:rgb(60.778809%,45.878601%,25.878906%);fill-opacity:1;" d="M 41.828125 48.132812 C 41.785156 50.40625 39.714844 52.117188 37.21875 51.9375 C 34.71875 51.761719 32.742188 49.769531 32.800781 47.476562 L 33.011719 37.933594 C 33.054688 35.65625 35.121094 33.945312 37.621094 34.125 C 40.117188 34.304688 42.09375 36.296875 42.035156 38.570312 Z M 41.828125 48.132812 "/>
<path style=" stroke:none;fill-rule:nonzero;fill:rgb(64.309692%,49.409485%,27.449036%);fill-opacity:1;" d="M 44.132812 33.5 C 44.699219 37.308594 41.8125 40.625 37.695312 40.921875 C 33.574219 41.21875 29.769531 38.378906 29.203125 34.570312 L 26.855469 18.632812 C 26.289062 14.824219 29.175781 11.507812 33.308594 11.210938 C 37.425781 10.914062 41.234375 13.753906 41.785156 17.5625 Z M 44.132812 33.5 "/>
<path style=" stroke:none;fill-rule:nonzero;fill:rgb(61.959839%,46.269226%,25.099182%);fill-opacity:1;" d="M 46.898438 35.507812 C 46.898438 35.507812 44.800781 28.847656 48.890625 23.03125 L 49.515625 33.234375 Z M 46.898438 35.507812 "/>
<path style=" stroke:none;fill-rule:nonzero;fill:rgb(30.198669%,29.798889%,29.798889%);fill-opacity:1;" d="M 41.398438 27.792969 C 41.398438 30.542969 39.242188 32.773438 36.59375 32.773438 C 33.945312 32.773438 31.789062 30.542969 31.789062 27.792969 C 31.789062 25.039062 33.945312 22.808594 36.59375 22.808594 C 39.242188 22.824219 41.398438 25.054688 41.398438 27.792969 "/>
<path style=" stroke:none;fill-rule:nonzero;fill:rgb(30.198669%,29.798889%,29.798889%);fill-opacity:1;" d="M 51.300781 25.753906 C 51.300781 26.082031 51.269531 26.40625 51.207031 26.726562 C 51.144531 27.046875 51.054688 27.359375 50.933594 27.660156 C 50.8125 27.960938 50.664062 28.25 50.492188 28.519531 C 50.316406 28.792969 50.117188 29.046875 49.894531 29.277344 C 49.671875 29.507812 49.425781 29.714844 49.164062 29.894531 C 48.902344 30.078125 48.625 30.230469 48.335938 30.355469 C 48.042969 30.480469 47.742188 30.574219 47.433594 30.640625 C 47.125 30.703125 46.8125 30.734375 46.496094 30.734375 C 46.179688 30.734375 45.871094 30.703125 45.558594 30.640625 C 45.25 30.574219 44.949219 30.480469 44.660156 30.355469 C 44.367188 30.230469 44.089844 30.078125 43.828125 29.894531 C 43.566406 29.714844 43.324219 29.507812 43.101562 29.277344 C 42.878906 29.046875 42.679688 28.792969 42.503906 28.519531 C 42.328125 28.25 42.179688 27.960938 42.058594 27.660156 C 41.9375 27.359375 41.847656 27.046875 41.785156 26.726562 C 41.726562 26.40625 41.695312 26.082031 41.695312 25.753906 C 41.695312 25.425781 41.726562 25.101562 41.785156 24.78125 C 41.847656 24.460938 41.9375 24.148438 42.058594 23.847656 C 42.179688 23.546875 42.328125 23.257812 42.503906 22.988281 C 42.679688 22.714844 42.878906 22.464844 43.101562 22.230469 C 43.324219 22 43.566406 21.792969 43.828125 21.613281 C 44.089844 21.429688 44.367188 21.277344 44.660156 21.152344 C 44.949219 21.027344 45.25 20.933594 45.558594 20.867188 C 45.871094 20.804688 46.179688 20.773438 46.496094 20.773438 C 46.8125 20.773438 47.125 20.804688 47.433594 20.867188 C 47.742188 20.933594 48.042969 21.027344 48.335938 21.152344 C 48.625 21.277344 48.902344 21.429688 49.164062 21.613281 C 49.425781 21.792969 49.671875 22 49.894531 22.230469 C 50.117188 22.464844 50.316406 22.714844 50.492188 22.988281 C 50.664062 23.257812 50.8125 23.546875 50.933594 23.847656 C 51.054688 24.148438 51.144531 24.460938 51.207031 24.78125 C 51.269531 25.101562 51.300781 25.425781 51.300781 25.753906 Z M 51.300781 25.753906 "/>
<path style=" stroke:none;fill-rule:nonzero;fill:rgb(30.198669%,29.798889%,29.798889%);fill-opacity:1;" d="M 35.523438 23.179688 L 37.574219 21.027344 L 42.929688 19.925781 L 45.84375 20.921875 L 47.835938 30.46875 L 42.707031 28.503906 L 37.144531 32.652344 Z M 35.523438 23.179688 "/>
<path style=" stroke:none;fill-rule:nonzero;fill:rgb(24.708557%,24.308777%,25.099182%);fill-opacity:1;" d="M 52.3125 26.347656 C 52.3125 28.90625 50.316406 30.972656 47.851562 30.972656 C 45.382812 30.972656 43.390625 28.90625 43.390625 26.347656 C 43.390625 23.792969 45.382812 21.722656 47.851562 21.722656 C 50.316406 21.722656 52.3125 23.792969 52.3125 26.347656 "/>
<path style=" stroke:none;fill-rule:nonzero;fill:rgb(30.198669%,29.798889%,29.798889%);fill-opacity:1;" d="M 52.3125 26.527344 C 52.3125 28.386719 50.855469 29.902344 49.054688 29.902344 C 47.253906 29.902344 45.796875 28.386719 45.796875 26.527344 C 45.796875 24.667969 47.253906 23.152344 49.054688 23.152344 C 50.855469 23.152344 52.3125 24.667969 52.3125 26.527344 "/>
<path style=" stroke:none;fill-rule:nonzero;fill:rgb(24.708557%,24.308777%,25.099182%);fill-opacity:1;" d="M 52.519531 26.675781 C 52.519531 27.050781 52.449219 27.410156 52.3125 27.757812 C 52.171875 28.101562 51.972656 28.410156 51.71875 28.671875 C 51.460938 28.9375 51.164062 29.144531 50.828125 29.285156 C 50.496094 29.429688 50.144531 29.5 49.78125 29.5 C 49.421875 29.5 49.070312 29.429688 48.734375 29.285156 C 48.402344 29.144531 48.105469 28.9375 47.847656 28.671875 C 47.59375 28.410156 47.394531 28.101562 47.253906 27.757812 C 47.117188 27.410156 47.046875 27.050781 47.046875 26.675781 C 47.046875 26.300781 47.117188 25.941406 47.253906 25.59375 C 47.394531 25.25 47.59375 24.941406 47.847656 24.679688 C 48.105469 24.414062 48.402344 24.210938 48.734375 24.066406 C 49.070312 23.921875 49.421875 23.851562 49.78125 23.851562 C 50.144531 23.851562 50.496094 23.921875 50.828125 24.066406 C 51.164062 24.210938 51.460938 24.414062 51.71875 24.679688 C 51.972656 24.941406 52.171875 25.25 52.3125 25.59375 C 52.449219 25.941406 52.519531 26.300781 52.519531 26.675781 Z M 52.519531 26.675781 "/>
<path style=" stroke:none;fill-rule:nonzero;fill:rgb(86.268616%,93.728638%,92.939758%);fill-opacity:1;" d="M 51.894531 26.675781 C 51.894531 27.761719 51.089844 28.636719 50.09375 28.636719 C 49.097656 28.636719 48.296875 27.761719 48.296875 26.675781 C 48.296875 25.589844 49.097656 24.714844 50.09375 24.714844 C 51.089844 24.714844 51.894531 25.589844 51.894531 26.675781 "/>
<path style=" stroke:none;fill-rule:nonzero;fill:rgb(66.268921%,83.529663%,81.568909%);fill-opacity:1;" d="M 50.09375 28.625 C 49.097656 28.625 48.296875 27.746094 48.296875 26.660156 C 48.296875 25.574219 49.097656 24.699219 50.09375 24.699219 C 51.089844 24.714844 51.089844 28.625 50.09375 28.625 "/>
<path style=" stroke:none;fill-rule:nonzero;fill:rgb(24.708557%,24.308777%,25.099182%);fill-opacity:1;" d="M 43.390625 28.089844 C 43.390625 30.644531 41.398438 32.710938 38.929688 32.710938 C 36.460938 32.710938 34.46875 30.644531 34.46875 28.089844 C 34.46875 25.53125 36.460938 23.464844 38.929688 23.464844 C 41.382812 23.464844 43.390625 25.546875 43.390625 28.089844 "/>
<path style=" stroke:none;fill-rule:nonzero;fill:rgb(30.198669%,29.798889%,29.798889%);fill-opacity:1;" d="M 43.375 28.265625 C 43.375 30.125 41.917969 31.640625 40.117188 31.640625 C 38.320312 31.640625 36.863281 30.125 36.863281 28.265625 C 36.863281 26.40625 38.320312 24.890625 40.117188 24.890625 C 41.917969 24.90625 43.375 26.40625 43.375 28.265625 "/>
<path style=" stroke:none;fill-rule:nonzero;fill:rgb(24.708557%,24.308777%,25.099182%);fill-opacity:1;" d="M 43.582031 28.414062 C 43.582031 28.789062 43.511719 29.152344 43.375 29.496094 C 43.234375 29.84375 43.039062 30.148438 42.78125 30.414062 C 42.523438 30.679688 42.230469 30.882812 41.894531 31.027344 C 41.558594 31.167969 41.210938 31.242188 40.847656 31.242188 C 40.484375 31.242188 40.132812 31.167969 39.800781 31.027344 C 39.464844 30.882812 39.167969 30.679688 38.910156 30.414062 C 38.65625 30.148438 38.457031 29.84375 38.320312 29.496094 C 38.179688 29.152344 38.109375 28.789062 38.109375 28.414062 C 38.109375 28.039062 38.179688 27.679688 38.320312 27.335938 C 38.457031 26.988281 38.65625 26.683594 38.910156 26.417969 C 39.167969 26.152344 39.464844 25.949219 39.800781 25.804688 C 40.132812 25.660156 40.484375 25.589844 40.847656 25.589844 C 41.210938 25.589844 41.558594 25.660156 41.894531 25.804688 C 42.230469 25.949219 42.523438 26.152344 42.78125 26.417969 C 43.039062 26.683594 43.234375 26.988281 43.375 27.335938 C 43.511719 27.679688 43.582031 28.039062 43.582031 28.414062 Z M 43.582031 28.414062 "/>
<path style=" stroke:none;fill-rule:nonzero;fill:rgb(86.268616%,93.728638%,92.939758%);fill-opacity:1;" d="M 42.957031 28.414062 C 42.957031 28.675781 42.914062 28.925781 42.820312 29.167969 C 42.730469 29.40625 42.601562 29.621094 42.429688 29.804688 C 42.261719 29.988281 42.066406 30.128906 41.847656 30.230469 C 41.625 30.328125 41.398438 30.378906 41.160156 30.378906 C 40.921875 30.378906 40.691406 30.328125 40.46875 30.230469 C 40.25 30.128906 40.054688 29.988281 39.886719 29.804688 C 39.71875 29.621094 39.585938 29.40625 39.496094 29.167969 C 39.40625 28.925781 39.359375 28.675781 39.359375 28.414062 C 39.359375 28.15625 39.40625 27.90625 39.496094 27.664062 C 39.585938 27.425781 39.71875 27.210938 39.886719 27.027344 C 40.054688 26.84375 40.25 26.703125 40.46875 26.601562 C 40.691406 26.503906 40.921875 26.453125 41.160156 26.453125 C 41.398438 26.453125 41.625 26.503906 41.847656 26.601562 C 42.066406 26.703125 42.261719 26.84375 42.429688 27.027344 C 42.601562 27.210938 42.730469 27.425781 42.820312 27.664062 C 42.914062 27.90625 42.957031 28.15625 42.957031 28.414062 Z M 42.957031 28.414062 "/>
<path style=" stroke:none;fill-rule:nonzero;fill:rgb(66.268921%,83.529663%,81.568909%);fill-opacity:1;" d="M 41.160156 30.378906 C 40.164062 30.378906 39.359375 29.5 39.359375 28.414062 C 39.359375 27.332031 40.164062 26.453125 41.160156 26.453125 C 42.15625 26.453125 42.15625 30.378906 41.160156 30.378906 "/>
<path style=" stroke:none;fill-rule:nonzero;fill:rgb(21.179199%,8.628845%,5.099487%);fill-opacity:1;" d="M 26.023438 19.121094 C 26.023438 19.121094 25.945312 25.101562 27.941406 23.492188 C 28.816406 22.78125 29.410156 19.375 30.882812 18.796875 C 32.578125 18.125 37.410156 23.417969 39.285156 22.882812 C 43.226562 21.738281 44.609375 17.695312 44.800781 16.832031 L 41.722656 16.578125 C 41.722656 16.578125 44.816406 15.539062 44.890625 14.007812 C 44.90625 14.023438 26.617188 5.265625 26.023438 19.121094 "/>
<path style=" stroke:none;fill-rule:nonzero;fill:rgb(61.959839%,46.269226%,25.099182%);fill-opacity:1;" d="M 35.671875 39.449219 C 35.671875 39.449219 37.769531 32.789062 33.679688 26.972656 L 33.054688 37.171875 Z M 35.671875 39.449219 "/>
<path style=" stroke:none;fill-rule:nonzero;fill:rgb(64.309692%,49.409485%,27.449036%);fill-opacity:1;" d="M 24.949219 48.074219 L 23.449219 48.324219 L 19.867188 48.933594 L 17.589844 68.308594 C 17.636719 68.339844 17.695312 68.382812 17.738281 68.414062 L 23.820312 58.496094 L 24.132812 57.976562 L 25.070312 55.789062 Z M 24.949219 48.074219 "/>
<path style=" stroke:none;fill-rule:nonzero;fill:rgb(64.309692%,49.409485%,27.449036%);fill-opacity:1;" d="M 53.484375 53.78125 L 51.046875 54.808594 L 51.078125 55.164062 L 57.160156 67.699219 C 57.53125 67.460938 57.886719 67.210938 58.257812 66.941406 Z M 53.484375 53.78125 "/>
<path style=" stroke:none;fill-rule:nonzero;fill:rgb(64.309692%,49.409485%,27.449036%);fill-opacity:1;" d="M 51.0625 55.179688 L 51.046875 54.824219 L 50.914062 54.867188 Z M 51.0625 55.179688 "/>
<g clip-path="url(#clip2)" clip-rule="nonzero">
<path style=" stroke:none;fill-rule:nonzero;fill:rgb(43.139648%,74.119568%,26.669312%);fill-opacity:1;" d="M 51.015625 55.078125 L 56.160156 53.84375 L 52.964844 43.863281 L 47.285156 43.285156 L 41.546875 43.910156 L 33.574219 45.277344 L 24.101562 71.507812 C 28.089844 72.980469 32.386719 73.78125 36.890625 73.78125 C 42.320312 73.78125 47.449219 72.609375 52.085938 70.496094 L 51.0625 55.179688 Z M 51.015625 55.078125 "/>
</g>
<path style=" stroke:none;fill-rule:nonzero;fill:rgb(43.139648%,74.119568%,26.669312%);fill-opacity:1;" d="M 25.769531 56.238281 L 25.785156 54.109375 L 29.21875 46.109375 L 25.441406 47.242188 L 20.132812 47.789062 L 16.9375 57.769531 L 25.101562 59.730469 Z M 25.769531 56.238281 "/>
<path style=" stroke:none;fill-rule:nonzero;fill:rgb(61.959839%,46.269226%,25.099182%);fill-opacity:1;" d="M 33.070312 37.160156 L 29.21875 46.109375 L 25.054688 55.789062 L 24.117188 57.976562 L 23.804688 58.496094 L 17.722656 68.414062 C 19.40625 69.441406 21.160156 70.316406 23.003906 71.0625 L 23.671875 71.328125 L 24.117188 71.507812 L 33.589844 45.261719 L 35.6875 39.449219 Z M 33.070312 37.160156 "/>
<path style=" stroke:none;fill-rule:nonzero;fill:rgb(61.959839%,46.269226%,25.099182%);fill-opacity:1;" d="M 58.4375 54.050781 L 49.5 33.234375 L 46.898438 35.507812 L 53.484375 53.78125 L 58.242188 66.957031 C 60.085938 65.648438 61.796875 64.175781 63.359375 62.570312 C 63.417969 62.511719 63.476562 62.4375 63.550781 62.378906 Z M 58.4375 54.050781 "/>
</g>
</svg>
