<?xml version="1.0" encoding="UTF-8"?>
<svg xmlns="http://www.w3.org/2000/svg" xmlns:xlink="http://www.w3.org/1999/xlink" width="75pt" height="74.999997pt" viewBox="0 0 75 74.999997" version="1.2">
<defs>
<clipPath id="clip1">
  <path d="M 5.585938 69 L 15 69 L 15 75 L 5.585938 75 Z M 5.585938 69 "/>
</clipPath>
<clipPath id="clip2">
  <path d="M 32 8 L 69.265625 8 L 69.265625 55 L 32 55 Z M 32 8 "/>
</clipPath>
</defs>
<g id="surface1">
<path style=" stroke:none;fill-rule:nonzero;fill:rgb(7.839966%,8.628845%,13.729858%);fill-opacity:0.098;" d="M 61.375 37.730469 C 61.375 38.523438 61.335938 39.3125 61.257812 40.101562 C 61.179688 40.890625 61.0625 41.671875 60.910156 42.449219 C 60.753906 43.226562 60.5625 43.996094 60.332031 44.753906 C 60.105469 45.511719 59.835938 46.257812 59.535156 46.992188 C 59.230469 47.722656 58.894531 48.4375 58.523438 49.136719 C 58.148438 49.835938 57.742188 50.515625 57.304688 51.175781 C 56.863281 51.832031 56.394531 52.46875 55.890625 53.082031 C 55.390625 53.695312 54.859375 54.28125 54.300781 54.839844 C 53.742188 55.402344 53.15625 55.933594 52.542969 56.4375 C 51.933594 56.9375 51.300781 57.410156 50.640625 57.851562 C 49.984375 58.292969 49.304688 58.699219 48.609375 59.074219 C 47.910156 59.445312 47.199219 59.785156 46.464844 60.085938 C 45.734375 60.390625 44.992188 60.65625 44.234375 60.886719 C 43.480469 61.117188 42.710938 61.308594 41.9375 61.464844 C 41.160156 61.621094 40.378906 61.734375 39.59375 61.8125 C 38.804688 61.890625 38.015625 61.929688 37.226562 61.929688 C 36.433594 61.929688 35.644531 61.890625 34.859375 61.8125 C 34.070312 61.734375 33.289062 61.621094 32.515625 61.464844 C 31.738281 61.308594 30.972656 61.117188 30.214844 60.886719 C 29.460938 60.65625 28.714844 60.390625 27.984375 60.085938 C 27.253906 59.785156 26.539062 59.445312 25.84375 59.074219 C 25.144531 58.699219 24.46875 58.292969 23.808594 57.851562 C 23.152344 57.410156 22.519531 56.9375 21.90625 56.4375 C 21.296875 55.933594 20.710938 55.402344 20.152344 54.839844 C 19.59375 54.28125 19.0625 53.695312 18.558594 53.082031 C 18.058594 52.46875 17.585938 51.832031 17.148438 51.175781 C 16.707031 50.515625 16.304688 49.835938 15.929688 49.136719 C 15.558594 48.4375 15.21875 47.722656 14.917969 46.992188 C 14.613281 46.257812 14.347656 45.511719 14.117188 44.753906 C 13.890625 43.996094 13.695312 43.226562 13.542969 42.449219 C 13.386719 41.671875 13.273438 40.890625 13.195312 40.101562 C 13.117188 39.3125 13.078125 38.523438 13.078125 37.730469 C 13.078125 36.9375 13.117188 36.144531 13.195312 35.355469 C 13.273438 34.570312 13.386719 33.785156 13.542969 33.007812 C 13.695312 32.230469 13.890625 31.460938 14.117188 30.703125 C 14.347656 29.945312 14.613281 29.199219 14.917969 28.46875 C 15.21875 27.734375 15.558594 27.019531 15.929688 26.320312 C 16.304688 25.621094 16.707031 24.941406 17.148438 24.285156 C 17.585938 23.625 18.058594 22.988281 18.558594 22.375 C 19.0625 21.765625 19.59375 21.175781 20.152344 20.617188 C 20.710938 20.054688 21.296875 19.523438 21.90625 19.023438 C 22.519531 18.519531 23.152344 18.046875 23.808594 17.609375 C 24.46875 17.167969 25.144531 16.761719 25.84375 16.386719 C 26.539062 16.011719 27.253906 15.675781 27.984375 15.371094 C 28.714844 15.066406 29.460938 14.800781 30.214844 14.570312 C 30.972656 14.339844 31.738281 14.148438 32.515625 13.992188 C 33.289062 13.839844 34.070312 13.722656 34.859375 13.644531 C 35.644531 13.566406 36.433594 13.527344 37.226562 13.527344 C 38.015625 13.527344 38.804688 13.566406 39.59375 13.644531 C 40.378906 13.722656 41.160156 13.839844 41.9375 13.992188 C 42.710938 14.148438 43.480469 14.339844 44.234375 14.570312 C 44.992188 14.800781 45.734375 15.066406 46.464844 15.371094 C 47.199219 15.675781 47.910156 16.011719 48.609375 16.386719 C 49.304688 16.761719 49.984375 17.167969 50.640625 17.609375 C 51.300781 18.046875 51.933594 18.519531 52.542969 19.023438 C 53.15625 19.523438 53.742188 20.054688 54.300781 20.617188 C 54.859375 21.175781 55.390625 21.765625 55.890625 22.375 C 56.394531 22.988281 56.863281 23.625 57.304688 24.285156 C 57.742188 24.941406 58.148438 25.621094 58.523438 26.320312 C 58.894531 27.019531 59.230469 27.734375 59.535156 28.46875 C 59.835938 29.199219 60.105469 29.945312 60.332031 30.703125 C 60.5625 31.460938 60.753906 32.230469 60.910156 33.007812 C 61.0625 33.785156 61.179688 34.570312 61.257812 35.355469 C 61.335938 36.144531 61.375 36.9375 61.375 37.730469 Z M 61.375 37.730469 "/>
<path style=" stroke:none;fill-rule:nonzero;fill:rgb(7.839966%,8.628845%,13.729858%);fill-opacity:0.098;" d="M 29.34375 33.179688 C 23.671875 31.683594 17.414062 34.09375 13.117188 36.402344 C 12.761719 43.03125 15.105469 49.777344 20.152344 54.839844 C 29.582031 64.289062 44.875 64.289062 54.300781 54.839844 C 58.460938 50.667969 60.785156 45.363281 61.273438 39.917969 C 39.613281 44.699219 38.316406 35.546875 29.34375 33.179688 Z M 29.34375 33.179688 "/>
<path style=" stroke:none;fill-rule:nonzero;fill:rgb(7.839966%,8.628845%,13.729858%);fill-opacity:0.098;" d="M 28.433594 48.90625 C 24.648438 48.734375 20.960938 50.214844 17.824219 52.136719 C 18.523438 53.078125 19.296875 53.980469 20.152344 54.839844 C 29.582031 64.289062 44.875 64.289062 54.300781 54.839844 C 55.769531 53.367188 57.007812 51.757812 58.019531 50.046875 C 40.550781 57.097656 37.214844 49.292969 28.433594 48.90625 Z M 28.433594 48.90625 "/>
<path style=" stroke:none;fill-rule:nonzero;fill:rgb(98.429871%,53.329468%,45.878601%);fill-opacity:1;" d="M 30.261719 47.167969 L 24.402344 47.167969 L 24.402344 30.378906 L 30.261719 30.378906 C 31.035156 34.878906 31.160156 39.46875 30.632812 44.003906 Z M 30.261719 47.167969 "/>
<path style=" stroke:none;fill-rule:nonzero;fill:rgb(98.429871%,53.329468%,45.878601%);fill-opacity:1;" d="M 30.253906 47.167969 C 30.253906 47.558594 30.179688 47.933594 30.03125 48.292969 C 29.882812 48.652344 29.671875 48.96875 29.398438 49.242188 C 29.125 49.515625 28.808594 49.730469 28.449219 49.878906 C 28.089844 50.027344 27.71875 50.101562 27.328125 50.101562 C 26.941406 50.101562 26.566406 50.027344 26.210938 49.878906 C 25.851562 49.730469 25.535156 49.515625 25.261719 49.242188 C 24.984375 48.96875 24.773438 48.652344 24.625 48.292969 C 24.476562 47.933594 24.402344 47.558594 24.402344 47.167969 C 24.402344 46.78125 24.476562 46.40625 24.625 46.046875 C 24.773438 45.6875 24.984375 45.371094 25.261719 45.097656 C 25.535156 44.820312 25.851562 44.609375 26.210938 44.460938 C 26.566406 44.3125 26.941406 44.238281 27.328125 44.238281 C 27.71875 44.238281 28.089844 44.3125 28.449219 44.460938 C 28.808594 44.609375 29.125 44.820312 29.398438 45.097656 C 29.671875 45.371094 29.882812 45.6875 30.03125 46.046875 C 30.179688 46.40625 30.253906 46.78125 30.253906 47.167969 Z M 30.253906 47.167969 "/>
<path style=" stroke:none;fill-rule:nonzero;fill:rgb(98.429871%,53.329468%,45.878601%);fill-opacity:1;" d="M 30.253906 30.378906 C 30.253906 30.769531 30.179688 31.140625 30.03125 31.5 C 29.882812 31.859375 29.671875 32.175781 29.398438 32.453125 C 29.125 32.726562 28.808594 32.9375 28.449219 33.089844 C 28.089844 33.238281 27.71875 33.3125 27.328125 33.3125 C 26.941406 33.3125 26.566406 33.238281 26.210938 33.089844 C 25.851562 32.9375 25.535156 32.726562 25.261719 32.453125 C 24.984375 32.175781 24.773438 31.859375 24.625 31.5 C 24.476562 31.140625 24.402344 30.769531 24.402344 30.378906 C 24.402344 29.988281 24.476562 29.617188 24.625 29.257812 C 24.773438 28.898438 24.984375 28.582031 25.261719 28.304688 C 25.535156 28.03125 25.851562 27.820312 26.210938 27.671875 C 26.566406 27.519531 26.941406 27.445312 27.328125 27.445312 C 27.71875 27.445312 28.089844 27.519531 28.449219 27.671875 C 28.808594 27.820312 29.125 28.03125 29.398438 28.304688 C 29.671875 28.582031 29.882812 28.898438 30.03125 29.257812 C 30.179688 29.617188 30.253906 29.988281 30.253906 30.378906 Z M 30.253906 30.378906 "/>
<path style=" stroke:none;fill-rule:nonzero;fill:rgb(98.429871%,53.329468%,45.878601%);fill-opacity:1;" d="M 24.402344 47.167969 L 30.261719 47.167969 L 30.261719 47.398438 C 30.292969 53.011719 29.710938 58.652344 28.527344 64.214844 L 27.820312 67.523438 L 24.835938 67.523438 Z M 24.402344 47.167969 "/>
<path style=" stroke:none;fill-rule:nonzero;fill:rgb(98.429871%,53.329468%,45.878601%);fill-opacity:1;" d="M 30.253906 47.167969 C 30.253906 47.558594 30.179688 47.933594 30.03125 48.292969 C 29.882812 48.652344 29.671875 48.96875 29.398438 49.242188 C 29.125 49.515625 28.808594 49.730469 28.449219 49.878906 C 28.089844 50.027344 27.71875 50.101562 27.328125 50.101562 C 26.941406 50.101562 26.566406 50.027344 26.210938 49.878906 C 25.851562 49.730469 25.535156 49.515625 25.261719 49.242188 C 24.984375 48.96875 24.773438 48.652344 24.625 48.292969 C 24.476562 47.933594 24.402344 47.558594 24.402344 47.167969 C 24.402344 46.78125 24.476562 46.40625 24.625 46.046875 C 24.773438 45.6875 24.984375 45.371094 25.261719 45.097656 C 25.535156 44.820312 25.851562 44.609375 26.210938 44.460938 C 26.566406 44.3125 26.941406 44.238281 27.328125 44.238281 C 27.71875 44.238281 28.089844 44.3125 28.449219 44.460938 C 28.808594 44.609375 29.125 44.820312 29.398438 45.097656 C 29.671875 45.371094 29.882812 45.6875 30.03125 46.046875 C 30.179688 46.40625 30.253906 46.78125 30.253906 47.167969 Z M 30.253906 47.167969 "/>
<path style=" stroke:none;fill-rule:nonzero;fill:rgb(98.429871%,53.329468%,45.878601%);fill-opacity:1;" d="M 27.855469 67.519531 C 27.855469 67.722656 27.816406 67.914062 27.742188 68.101562 C 27.664062 68.285156 27.554688 68.449219 27.414062 68.59375 C 27.273438 68.734375 27.109375 68.84375 26.921875 68.921875 C 26.738281 68.996094 26.542969 69.035156 26.34375 69.035156 C 26.144531 69.035156 25.949219 68.996094 25.765625 68.921875 C 25.578125 68.84375 25.417969 68.734375 25.273438 68.59375 C 25.132812 68.449219 25.023438 68.285156 24.945312 68.101562 C 24.871094 67.914062 24.832031 67.722656 24.832031 67.519531 C 24.832031 67.320312 24.871094 67.125 24.945312 66.941406 C 25.023438 66.753906 25.132812 66.589844 25.273438 66.449219 C 25.417969 66.304688 25.578125 66.195312 25.765625 66.121094 C 25.949219 66.042969 26.144531 66.003906 26.34375 66.003906 C 26.542969 66.003906 26.738281 66.042969 26.921875 66.121094 C 27.109375 66.195312 27.273438 66.304688 27.414062 66.449219 C 27.554688 66.589844 27.664062 66.753906 27.742188 66.941406 C 27.816406 67.125 27.855469 67.320312 27.855469 67.519531 Z M 27.855469 67.519531 "/>
<path style=" stroke:none;fill-rule:nonzero;fill:rgb(98.429871%,53.329468%,45.878601%);fill-opacity:1;" d="M 27.855469 67.519531 C 27.855469 67.519531 28.011719 70.636719 29.644531 71.996094 C 30.816406 72.980469 31.941406 74.300781 31.671875 74.652344 C 31.40625 75 27.785156 74.652344 27.183594 74.652344 C 26.675781 74.652344 26.109375 72.859375 25.191406 72.121094 C 24.800781 71.808594 24.582031 71.324219 24.574219 70.824219 C 24.558594 70.058594 24.59375 68.902344 24.832031 67.519531 Z M 27.855469 67.519531 "/>
<path style=" stroke:none;fill-rule:nonzero;fill:rgb(7.839966%,8.628845%,13.729858%);fill-opacity:1;" d="M 31.917969 74.929688 C 32.15625 74.929688 32.320312 74.691406 32.234375 74.472656 C 32.136719 74.207031 31.964844 73.859375 31.667969 73.523438 C 31.304688 73.109375 30.980469 72.816406 30.089844 72.410156 C 30.089844 72.410156 28.082031 71.886719 27.101562 73.847656 C 27.101562 73.847656 25.667969 72.261719 25.34375 71.683594 C 25.015625 71.105469 24.5625 69.417969 24.5625 69.417969 C 24.5625 69.417969 24.234375 70.351562 24.5625 71.789062 C 24.890625 73.226562 24.820312 74.933594 24.820312 74.933594 L 25.289062 74.933594 L 25.265625 72.949219 C 25.265625 72.949219 26.566406 73.652344 26.894531 74.933594 L 31.917969 74.933594 Z M 31.917969 74.929688 "/>
<path style=" stroke:none;fill-rule:nonzero;fill:rgb(98.429871%,53.329468%,45.878601%);fill-opacity:1;" d="M 14.472656 67.355469 C 14.472656 67.554688 14.433594 67.75 14.355469 67.933594 C 14.28125 68.121094 14.171875 68.285156 14.027344 68.425781 C 13.886719 68.570312 13.722656 68.679688 13.539062 68.757812 C 13.351562 68.832031 13.160156 68.871094 12.960938 68.871094 C 12.757812 68.871094 12.566406 68.832031 12.378906 68.757812 C 12.195312 68.679688 12.03125 68.570312 11.890625 68.425781 C 11.746094 68.285156 11.636719 68.121094 11.5625 67.933594 C 11.484375 67.75 11.445312 67.554688 11.445312 67.355469 C 11.445312 67.15625 11.484375 66.960938 11.5625 66.773438 C 11.636719 66.589844 11.746094 66.425781 11.890625 66.285156 C 12.03125 66.140625 12.195312 66.03125 12.378906 65.953125 C 12.566406 65.878906 12.757812 65.839844 12.960938 65.839844 C 13.160156 65.839844 13.351562 65.878906 13.539062 65.953125 C 13.722656 66.03125 13.886719 66.140625 14.027344 66.285156 C 14.171875 66.425781 14.28125 66.589844 14.355469 66.773438 C 14.433594 66.960938 14.472656 67.15625 14.472656 67.355469 Z M 14.472656 67.355469 "/>
<path style=" stroke:none;fill-rule:nonzero;fill:rgb(98.429871%,53.329468%,45.878601%);fill-opacity:1;" d="M 11.488281 67.03125 C 11.488281 67.03125 10.671875 70.042969 8.78125 71.019531 C 7.421875 71.730469 6.042969 72.777344 6.230469 73.179688 C 6.421875 73.582031 10.027344 74.011719 10.617188 74.140625 C 11.113281 74.253906 12.042969 72.625 13.105469 72.097656 C 13.550781 71.875 13.863281 71.449219 13.984375 70.960938 C 14.164062 70.210938 14.378906 69.074219 14.4375 67.679688 Z M 11.488281 67.03125 "/>
<g clip-path="url(#clip1)" clip-rule="nonzero">
<path style=" stroke:none;fill-rule:nonzero;fill:rgb(7.839966%,8.628845%,13.729858%);fill-opacity:1;" d="M 5.933594 73.398438 C 5.699219 73.347656 5.589844 73.082031 5.71875 72.878906 C 5.875 72.640625 6.113281 72.34375 6.476562 72.074219 C 6.921875 71.742188 7.300781 71.527344 8.253906 71.324219 C 8.253906 71.324219 10.328125 71.246094 10.863281 73.371094 C 10.863281 73.371094 12.601562 72.128906 13.042969 71.632812 C 13.488281 71.140625 14.292969 69.589844 14.292969 69.589844 C 14.292969 69.589844 14.414062 70.570312 13.785156 71.902344 C 13.160156 73.234375 12.859375 74.921875 12.859375 74.921875 L 12.402344 74.820312 L 12.851562 72.886719 C 12.851562 72.886719 11.425781 73.292969 10.828125 74.476562 Z M 5.933594 73.398438 "/>
</g>
<path style=" stroke:none;fill-rule:nonzero;fill:rgb(98.429871%,53.329468%,45.878601%);fill-opacity:1;" d="M 13.46875 46.636719 L 19.1875 47.890625 L 22.777344 31.492188 L 17.054688 30.234375 C 15.332031 34.464844 14.226562 38.921875 13.78125 43.464844 Z M 13.46875 46.636719 "/>
<path style=" stroke:none;fill-rule:nonzero;fill:rgb(98.429871%,53.329468%,45.878601%);fill-opacity:1;" d="M 19.253906 47.265625 C 19.253906 47.652344 19.179688 48.027344 19.03125 48.386719 C 18.882812 48.746094 18.671875 49.0625 18.398438 49.335938 C 18.121094 49.613281 17.804688 49.824219 17.449219 49.972656 C 17.089844 50.121094 16.714844 50.195312 16.328125 50.195312 C 15.941406 50.195312 15.566406 50.121094 15.207031 49.972656 C 14.851562 49.824219 14.535156 49.613281 14.257812 49.335938 C 13.984375 49.0625 13.773438 48.746094 13.625 48.386719 C 13.476562 48.027344 13.402344 47.652344 13.402344 47.265625 C 13.402344 46.875 13.476562 46.5 13.625 46.140625 C 13.773438 45.78125 13.984375 45.464844 14.257812 45.191406 C 14.535156 44.914062 14.851562 44.703125 15.207031 44.554688 C 15.566406 44.40625 15.941406 44.332031 16.328125 44.332031 C 16.714844 44.332031 17.089844 44.40625 17.449219 44.554688 C 17.804688 44.703125 18.121094 44.914062 18.398438 45.191406 C 18.671875 45.464844 18.882812 45.78125 19.03125 46.140625 C 19.179688 46.5 19.253906 46.875 19.253906 47.265625 Z M 19.253906 47.265625 "/>
<path style=" stroke:none;fill-rule:nonzero;fill:rgb(98.429871%,53.329468%,45.878601%);fill-opacity:1;" d="M 22.839844 30.863281 C 22.839844 31.25 22.765625 31.625 22.617188 31.984375 C 22.46875 32.34375 22.257812 32.660156 21.984375 32.9375 C 21.710938 33.210938 21.394531 33.421875 21.035156 33.570312 C 20.675781 33.71875 20.304688 33.792969 19.914062 33.792969 C 19.527344 33.792969 19.152344 33.71875 18.796875 33.570312 C 18.4375 33.421875 18.121094 33.210938 17.847656 32.9375 C 17.574219 32.660156 17.359375 32.34375 17.210938 31.984375 C 17.0625 31.625 16.988281 31.25 16.988281 30.863281 C 16.988281 30.472656 17.0625 30.101562 17.210938 29.742188 C 17.359375 29.382812 17.574219 29.0625 17.847656 28.789062 C 18.121094 28.515625 18.4375 28.300781 18.796875 28.152344 C 19.152344 28.003906 19.527344 27.929688 19.914062 27.929688 C 20.304688 27.929688 20.675781 28.003906 21.035156 28.152344 C 21.394531 28.300781 21.710938 28.515625 21.984375 28.789062 C 22.257812 29.0625 22.46875 29.382812 22.617188 29.742188 C 22.765625 30.101562 22.839844 30.472656 22.839844 30.863281 Z M 22.839844 30.863281 "/>
<path style=" stroke:none;fill-rule:nonzero;fill:rgb(98.429871%,53.329468%,45.878601%);fill-opacity:1;" d="M 19.183594 47.890625 L 13.460938 46.636719 L 13.414062 46.855469 C 12.179688 52.335938 11.542969 57.964844 11.511719 63.648438 L 11.492188 67.035156 L 14.40625 67.679688 Z M 19.183594 47.890625 "/>
<path style=" stroke:none;fill-rule:nonzero;fill:rgb(98.429871%,53.329468%,45.878601%);fill-opacity:1;" d="M 19.253906 47.265625 C 19.253906 47.652344 19.179688 48.027344 19.03125 48.386719 C 18.882812 48.746094 18.671875 49.0625 18.398438 49.335938 C 18.121094 49.613281 17.804688 49.824219 17.449219 49.972656 C 17.089844 50.121094 16.714844 50.195312 16.328125 50.195312 C 15.941406 50.195312 15.566406 50.121094 15.207031 49.972656 C 14.851562 49.824219 14.535156 49.613281 14.257812 49.335938 C 13.984375 49.0625 13.773438 48.746094 13.625 48.386719 C 13.476562 48.027344 13.402344 47.652344 13.402344 47.265625 C 13.402344 46.875 13.476562 46.5 13.625 46.140625 C 13.773438 45.78125 13.984375 45.464844 14.257812 45.191406 C 14.535156 44.914062 14.851562 44.703125 15.207031 44.554688 C 15.566406 44.40625 15.941406 44.332031 16.328125 44.332031 C 16.714844 44.332031 17.089844 44.40625 17.449219 44.554688 C 17.804688 44.703125 18.121094 44.914062 18.398438 45.191406 C 18.671875 45.464844 18.882812 45.78125 19.03125 46.140625 C 19.179688 46.5 19.253906 46.875 19.253906 47.265625 Z M 19.253906 47.265625 "/>
<path style=" stroke:none;fill-rule:nonzero;fill:rgb(99.21875%,52.938843%,10.5896%);fill-opacity:1;" d="M 17.261719 26.902344 C 17.261719 26.902344 13.871094 34.296875 12.964844 43.179688 C 12.058594 52.0625 10.328125 64.285156 10.328125 64.285156 C 10.328125 64.285156 14.253906 66.429688 16.28125 64.285156 L 22.992188 32.914062 L 23.59375 32.832031 L 23.695312 65.230469 C 23.695312 65.230469 26.960938 67.738281 29.5625 65.835938 C 29.5625 65.835938 31.207031 53.035156 30.253906 48.5 C 30.253906 48.5 31.707031 33.789062 30.625 28.769531 C 29.84375 25.152344 30.253906 25.089844 30.253906 25.089844 Z M 17.261719 26.902344 "/>
<path style=" stroke:none;fill-rule:nonzero;fill:rgb(7.839966%,8.628845%,13.729858%);fill-opacity:1;" d="M 25.003906 3.339844 C 24.199219 0 20.851562 0.128906 20.851562 0.128906 C 20.851562 0.128906 17.507812 0 16.699219 3.339844 C 15.894531 6.683594 15.558594 8.667969 15.558594 8.667969 C 15.558594 8.667969 16.796875 10.648438 20.855469 10.738281 C 24.910156 10.648438 26.15625 8.667969 26.15625 8.667969 C 26.15625 8.667969 25.8125 6.683594 25.003906 3.339844 Z M 25.003906 3.339844 "/>
<path style=" stroke:none;fill-rule:nonzero;fill:rgb(98.429871%,53.329468%,45.878601%);fill-opacity:1;" d="M 22.527344 8.570312 L 21.304688 8.730469 L 20.078125 8.890625 C 20.164062 9.898438 19.777344 11.898438 19.777344 11.898438 L 23.597656 11.398438 C 23.59375 11.40625 22.707031 9.570312 22.527344 8.570312 Z M 22.527344 8.570312 "/>
<path style=" stroke:none;fill-rule:nonzero;fill:rgb(7.839966%,8.628845%,13.729858%);fill-opacity:0.4;" d="M 21.304688 8.738281 L 20.078125 8.894531 C 20.097656 9.136719 20.09375 9.429688 20.070312 9.738281 C 20.457031 9.859375 20.933594 9.894531 21.523438 9.820312 C 22.035156 9.75 22.449219 9.621094 22.773438 9.445312 C 22.660156 9.128906 22.574219 8.828125 22.527344 8.570312 Z M 21.304688 8.738281 "/>
<path style=" stroke:none;fill-rule:nonzero;fill:rgb(98.429871%,53.329468%,45.878601%);fill-opacity:1;" d="M 23.5625 5.757812 C 23.5625 5.757812 23.675781 4.898438 24.25 4.917969 C 24.820312 4.933594 24.945312 5.695312 24.800781 6.195312 C 24.65625 6.691406 24.332031 6.960938 23.71875 6.953125 Z M 23.5625 5.757812 "/>
<path style=" stroke:none;fill-rule:nonzero;fill:rgb(98.429871%,53.329468%,45.878601%);fill-opacity:1;" d="M 18.507812 6.421875 C 18.507812 6.421875 18.175781 5.621094 17.625 5.785156 C 17.078125 5.949219 17.152344 6.71875 17.417969 7.160156 C 17.679688 7.605469 18.070312 7.785156 18.660156 7.613281 Z M 18.507812 6.421875 "/>
<path style=" stroke:none;fill-rule:nonzero;fill:rgb(98.429871%,53.329468%,45.878601%);fill-opacity:1;" d="M 22.921875 2.152344 C 22.015625 1.445312 21.160156 1.25 20.421875 1.390625 C 19.675781 1.449219 18.898438 1.859375 18.207031 2.773438 C 18.207031 2.773438 17.675781 4.34375 18.035156 5.679688 C 18.371094 6.953125 18.296875 9.859375 21.476562 9.445312 C 24.65625 9.027344 23.835938 6.234375 23.839844 4.917969 C 23.835938 3.535156 22.921875 2.152344 22.921875 2.152344 Z M 22.921875 2.152344 "/>
<path style=" stroke:none;fill-rule:nonzero;fill:rgb(7.839966%,8.628845%,13.729858%);fill-opacity:1;" d="M 21.757812 4.375 C 21.519531 4.257812 21.324219 4.175781 21.273438 4.289062 C 21.21875 4.402344 21.375 4.582031 21.613281 4.699219 C 21.851562 4.8125 22.089844 4.8125 22.144531 4.703125 C 22.1875 4.59375 21.996094 4.492188 21.757812 4.375 Z M 21.757812 4.375 "/>
<path style=" stroke:none;fill-rule:nonzero;fill:rgb(7.839966%,8.628845%,13.729858%);fill-opacity:1;" d="M 20.695312 4.996094 L 20.785156 6.222656 L 20.8125 6.527344 C 20.816406 6.578125 20.816406 6.632812 20.824219 6.667969 C 20.839844 6.707031 20.867188 6.742188 20.894531 6.765625 C 20.929688 6.792969 20.96875 6.808594 21.011719 6.8125 C 21.03125 6.8125 21.050781 6.8125 21.070312 6.808594 L 21.144531 6.792969 L 21.441406 6.722656 C 21.472656 6.71875 21.503906 6.730469 21.507812 6.761719 C 21.511719 6.792969 21.496094 6.820312 21.46875 6.828125 L 21.167969 6.890625 L 21.09375 6.90625 C 21.066406 6.910156 21.035156 6.917969 21.003906 6.910156 C 20.945312 6.90625 20.886719 6.882812 20.839844 6.839844 C 20.796875 6.800781 20.761719 6.753906 20.742188 6.691406 C 20.722656 6.632812 20.726562 6.578125 20.726562 6.527344 L 20.710938 6.21875 L 20.652344 4.992188 C 20.652344 4.976562 20.660156 4.964844 20.675781 4.964844 C 20.6875 4.976562 20.695312 4.988281 20.695312 4.996094 Z M 20.695312 4.996094 "/>
<path style=" stroke:none;fill-rule:nonzero;fill:rgb(7.839966%,8.628845%,13.729858%);fill-opacity:1;" d="M 17.613281 6.292969 C 17.671875 6.222656 17.765625 6.203125 17.855469 6.21875 C 17.945312 6.234375 18.019531 6.289062 18.078125 6.347656 C 18.1875 6.472656 18.261719 6.628906 18.269531 6.792969 C 18.269531 6.808594 18.257812 6.816406 18.242188 6.816406 C 18.234375 6.816406 18.222656 6.8125 18.21875 6.800781 C 18.164062 6.664062 18.097656 6.527344 18 6.421875 C 17.953125 6.367188 17.894531 6.328125 17.835938 6.308594 C 17.769531 6.289062 17.703125 6.289062 17.640625 6.324219 C 17.632812 6.328125 17.617188 6.324219 17.613281 6.3125 C 17.605469 6.3125 17.605469 6.304688 17.613281 6.292969 Z M 17.613281 6.292969 "/>
<path style=" stroke:none;fill-rule:nonzero;fill:rgb(7.839966%,8.628845%,13.729858%);fill-opacity:1;" d="M 17.730469 6.761719 C 17.695312 6.71875 17.679688 6.65625 17.675781 6.597656 C 17.671875 6.539062 17.691406 6.472656 17.730469 6.417969 C 17.769531 6.367188 17.835938 6.324219 17.898438 6.324219 C 17.964844 6.316406 18.035156 6.347656 18.070312 6.40625 C 18.074219 6.421875 18.070312 6.4375 18.058594 6.441406 C 18.050781 6.449219 18.039062 6.449219 18.035156 6.441406 C 18 6.417969 17.953125 6.414062 17.914062 6.421875 C 17.878906 6.433594 17.84375 6.453125 17.820312 6.488281 C 17.765625 6.550781 17.761719 6.648438 17.769531 6.746094 C 17.769531 6.757812 17.765625 6.773438 17.75 6.773438 C 17.742188 6.773438 17.734375 6.773438 17.730469 6.761719 Z M 17.730469 6.761719 "/>
<path style=" stroke:none;fill-rule:nonzero;fill:rgb(7.839966%,8.628845%,13.729858%);fill-opacity:1;" d="M 21.542969 7.523438 C 21.429688 7.5 21.3125 7.5 21.203125 7.519531 C 21.148438 7.53125 21.09375 7.550781 21.039062 7.566406 C 20.984375 7.585938 20.929688 7.609375 20.871094 7.628906 C 20.851562 7.632812 20.832031 7.625 20.824219 7.609375 C 20.820312 7.601562 20.824219 7.585938 20.832031 7.574219 C 20.851562 7.550781 20.875 7.523438 20.902344 7.5 C 20.925781 7.480469 20.957031 7.460938 20.984375 7.441406 C 21.042969 7.40625 21.109375 7.378906 21.179688 7.367188 C 21.25 7.355469 21.324219 7.355469 21.386719 7.371094 C 21.457031 7.386719 21.523438 7.414062 21.574219 7.46875 C 21.582031 7.480469 21.582031 7.5 21.574219 7.511719 C 21.566406 7.515625 21.558594 7.519531 21.546875 7.519531 Z M 21.542969 7.523438 "/>
<path style=" stroke:none;fill-rule:nonzero;fill:rgb(7.839966%,8.628845%,13.729858%);fill-opacity:1;" d="M 20.398438 7.476562 C 20.507812 7.40625 20.628906 7.351562 20.746094 7.300781 C 20.867188 7.25 20.988281 7.214844 21.121094 7.191406 C 21.25 7.164062 21.378906 7.152344 21.511719 7.152344 C 21.640625 7.15625 21.777344 7.171875 21.902344 7.214844 C 21.921875 7.222656 21.925781 7.242188 21.921875 7.261719 C 21.914062 7.277344 21.902344 7.285156 21.886719 7.285156 C 21.761719 7.277344 21.636719 7.277344 21.519531 7.285156 C 21.394531 7.300781 21.273438 7.316406 21.148438 7.339844 C 20.90625 7.390625 20.667969 7.457031 20.421875 7.53125 C 20.40625 7.535156 20.394531 7.523438 20.386719 7.511719 C 20.382812 7.496094 20.386719 7.480469 20.398438 7.476562 Z M 20.398438 7.476562 "/>
<path style=" stroke:none;fill-rule:nonzero;fill:rgb(7.839966%,8.628845%,13.729858%);fill-opacity:0.098;" d="M 23.894531 5.824219 C 23.894531 5.824219 23.9375 5.433594 24.175781 5.445312 C 24.410156 5.457031 24.464844 5.804688 24.410156 6.027344 C 24.355469 6.253906 24.21875 6.378906 23.964844 6.367188 Z M 23.894531 5.824219 "/>
<path style=" stroke:none;fill-rule:nonzero;fill:rgb(7.839966%,8.628845%,13.729858%);fill-opacity:0.098;" d="M 18.203125 6.574219 C 18.203125 6.574219 18.066406 6.207031 17.839844 6.277344 C 17.617188 6.347656 17.652344 6.695312 17.765625 6.902344 C 17.878906 7.105469 18.035156 7.191406 18.277344 7.117188 Z M 18.203125 6.574219 "/>
<path style=" stroke:none;fill-rule:nonzero;fill:rgb(7.839966%,8.628845%,13.729858%);fill-opacity:1;" d="M 21.957031 5.113281 C 21.96875 5.1875 21.957031 5.257812 21.917969 5.316406 C 21.882812 5.378906 21.832031 5.410156 21.773438 5.417969 C 21.710938 5.425781 21.65625 5.40625 21.605469 5.359375 C 21.554688 5.308594 21.523438 5.246094 21.515625 5.171875 C 21.503906 5.09375 21.515625 5.027344 21.554688 4.96875 C 21.589844 4.90625 21.640625 4.875 21.699219 4.863281 C 21.761719 4.855469 21.816406 4.878906 21.867188 4.925781 C 21.917969 4.972656 21.949219 5.035156 21.957031 5.113281 Z M 21.957031 5.113281 "/>
<path style=" stroke:none;fill-rule:nonzero;fill:rgb(94.509888%,85.879517%,80.778503%);fill-opacity:1;" d="M 21.910156 5.234375 C 21.917969 5.289062 21.898438 5.320312 21.855469 5.324219 C 21.8125 5.332031 21.789062 5.304688 21.78125 5.25 C 21.773438 5.195312 21.792969 5.164062 21.835938 5.15625 C 21.878906 5.152344 21.902344 5.175781 21.910156 5.234375 Z M 21.910156 5.234375 "/>
<path style=" stroke:none;fill-rule:nonzero;fill:rgb(7.839966%,8.628845%,13.729858%);fill-opacity:1;" d="M 19.722656 4.46875 C 19.945312 4.324219 20.121094 4.214844 20.1875 4.320312 C 20.257812 4.421875 20.132812 4.628906 19.910156 4.773438 C 19.6875 4.917969 19.453125 4.953125 19.382812 4.847656 C 19.316406 4.742188 19.496094 4.613281 19.722656 4.46875 Z M 19.722656 4.46875 "/>
<path style=" stroke:none;fill-rule:nonzero;fill:rgb(7.839966%,8.628845%,13.729858%);fill-opacity:1;" d="M 20.097656 5.355469 C 20.105469 5.433594 20.09375 5.5 20.058594 5.5625 C 20.023438 5.621094 19.972656 5.65625 19.910156 5.664062 C 19.851562 5.671875 19.792969 5.652344 19.742188 5.601562 C 19.695312 5.554688 19.664062 5.492188 19.652344 5.414062 C 19.644531 5.339844 19.65625 5.269531 19.691406 5.210938 C 19.730469 5.152344 19.777344 5.117188 19.839844 5.109375 C 19.902344 5.101562 19.957031 5.121094 20.007812 5.167969 C 20.058594 5.21875 20.085938 5.28125 20.097656 5.355469 Z M 20.097656 5.355469 "/>
<path style=" stroke:none;fill-rule:nonzero;fill:rgb(94.509888%,85.879517%,80.778503%);fill-opacity:1;" d="M 20.050781 5.476562 C 20.054688 5.535156 20.039062 5.5625 19.996094 5.570312 C 19.953125 5.574219 19.929688 5.550781 19.921875 5.496094 C 19.914062 5.4375 19.929688 5.40625 19.972656 5.402344 C 20.015625 5.394531 20.042969 5.421875 20.050781 5.476562 Z M 20.050781 5.476562 "/>
<path style=" stroke:none;fill-rule:nonzero;fill:rgb(7.839966%,8.628845%,13.729858%);fill-opacity:1;" d="M 23.847656 6.058594 C 23.804688 5.898438 23.835938 5.730469 23.910156 5.582031 C 23.949219 5.503906 24.011719 5.433594 24.09375 5.394531 C 24.175781 5.355469 24.277344 5.355469 24.355469 5.40625 C 24.363281 5.414062 24.367188 5.429688 24.359375 5.441406 C 24.355469 5.449219 24.34375 5.457031 24.332031 5.449219 C 24.269531 5.433594 24.199219 5.449219 24.144531 5.484375 C 24.089844 5.519531 24.046875 5.570312 24.015625 5.636719 C 23.945312 5.757812 23.914062 5.902344 23.894531 6.058594 C 23.894531 6.070312 23.886719 6.078125 23.871094 6.078125 C 23.855469 6.074219 23.851562 6.070312 23.847656 6.058594 Z M 23.847656 6.058594 "/>
<path style=" stroke:none;fill-rule:nonzero;fill:rgb(7.839966%,8.628845%,13.729858%);fill-opacity:1;" d="M 23.941406 5.640625 C 23.957031 5.574219 24.015625 5.53125 24.074219 5.515625 C 24.140625 5.5 24.214844 5.519531 24.265625 5.558594 C 24.3125 5.601562 24.347656 5.660156 24.363281 5.71875 C 24.378906 5.78125 24.375 5.839844 24.355469 5.894531 C 24.347656 5.910156 24.332031 5.914062 24.320312 5.910156 C 24.308594 5.902344 24.304688 5.898438 24.304688 5.890625 C 24.289062 5.789062 24.265625 5.699219 24.195312 5.648438 C 24.164062 5.621094 24.125 5.609375 24.089844 5.609375 C 24.050781 5.609375 24.011719 5.625 23.976562 5.660156 C 23.964844 5.667969 23.957031 5.667969 23.945312 5.660156 C 23.941406 5.65625 23.941406 5.648438 23.941406 5.640625 Z M 23.941406 5.640625 "/>
<path style=" stroke:none;fill-rule:nonzero;fill:rgb(7.839966%,8.628845%,13.729858%);fill-opacity:1;" d="M 18.121094 5.890625 C 18.121094 5.890625 18.433594 4.882812 18.449219 4.035156 C 18.460938 3.1875 18.460938 3.1875 18.460938 3.1875 L 18.804688 4.273438 C 18.804688 4.273438 19.53125 3.628906 19.195312 2.128906 L 19.777344 3.945312 C 19.777344 3.945312 20.894531 3.097656 21.058594 1.699219 L 21.058594 3.515625 C 21.058594 3.515625 22.210938 3.515625 22.5625 2.265625 C 22.5625 2.265625 22.957031 3.691406 23.167969 4.90625 C 23.167969 4.90625 23.757812 4.46875 23.6875 2.933594 C 23.617188 1.402344 21.375 0.628906 20.066406 0.894531 C 18.757812 1.15625 17.890625 2.175781 17.675781 3.023438 C 17.460938 3.871094 17.886719 5.773438 17.886719 5.773438 Z M 18.121094 5.890625 "/>
<path style=" stroke:none;fill-rule:nonzero;fill:rgb(56.858826%,83.139038%,86.669922%);fill-opacity:1;" d="M 30.214844 25.75 C 30.214844 25.75 28.484375 27.1875 25.222656 27.617188 C 21.128906 28.148438 17.601562 27.132812 17.261719 26.910156 C 16.457031 26.375 17.183594 25.703125 17.183594 25.703125 L 16.890625 21.941406 C 16.890625 21.941406 16.65625 21.550781 15.820312 19.453125 C 15.132812 17.734375 15.523438 14.007812 15.6875 12.730469 C 15.722656 12.464844 15.90625 12.265625 16.140625 12.238281 L 16.367188 12.207031 L 18.816406 11.886719 L 19.011719 11.363281 C 19.085938 11.164062 19.203125 10.980469 19.351562 10.824219 L 20.039062 10.136719 L 21.597656 11.519531 L 22.78125 9.441406 L 23.746094 10.40625 C 23.894531 10.558594 24.011719 10.738281 24.085938 10.929688 L 24.179688 11.175781 L 26.738281 10.839844 L 26.738281 10.855469 L 26.828125 10.824219 L 27.054688 10.796875 C 27.292969 10.765625 27.523438 10.910156 27.621094 11.15625 C 28.105469 12.347656 29.4375 15.84375 29.21875 17.6875 C 28.953125 19.933594 28.820312 20.367188 28.820312 20.367188 L 29.597656 23.921875 C 29.582031 23.929688 31.988281 24.464844 30.214844 25.75 Z M 30.214844 25.75 "/>
<path style=" stroke:none;fill-rule:nonzero;fill:rgb(7.839966%,8.628845%,13.729858%);fill-opacity:0.298;" d="M 19.277344 25.324219 C 19.277344 25.324219 19.503906 25.589844 19.710938 25.859375 C 19.921875 26.136719 21.523438 26.628906 21.605469 26.304688 C 21.691406 25.976562 20.925781 25.652344 21.042969 25.589844 C 21.164062 25.53125 21.042969 25.09375 21.042969 25.09375 C 21.042969 25.09375 21.195312 24.9375 21.667969 24.699219 C 22.140625 24.460938 22.503906 22.882812 22.503906 22.882812 L 29.527344 23.691406 L 28.8125 20.375 C 28.8125 20.375 28.828125 20.324219 28.851562 20.179688 C 28.730469 20.160156 28.613281 20.136719 28.488281 20.117188 C 27.347656 19.90625 24.90625 19.757812 22.847656 19.675781 C 20.78125 19.597656 17.90625 20.734375 17.90625 20.734375 L 16.855469 21.871094 C 16.878906 21.921875 16.890625 21.9375 16.890625 21.9375 L 17.050781 23.984375 L 18.167969 24.867188 C 18.46875 25.101562 18.820312 25.253906 19.195312 25.308594 Z M 19.277344 25.324219 "/>
<path style=" stroke:none;fill-rule:nonzero;fill:rgb(7.839966%,8.628845%,13.729858%);fill-opacity:1;" d="M 23.703125 12.53125 C 23.3125 12.542969 22.925781 12.460938 22.558594 12.332031 C 22.375 12.261719 22.199219 12.171875 22.035156 12.066406 C 21.871094 11.964844 21.722656 11.828125 21.59375 11.683594 C 21.582031 11.675781 21.582031 11.660156 21.59375 11.648438 C 21.601562 11.640625 21.617188 11.640625 21.628906 11.648438 C 21.769531 11.769531 21.921875 11.894531 22.085938 11.984375 C 22.25 12.078125 22.417969 12.164062 22.59375 12.226562 C 22.765625 12.296875 22.949219 12.351562 23.132812 12.390625 C 23.320312 12.4375 23.507812 12.464844 23.695312 12.488281 C 23.707031 12.488281 23.71875 12.496094 23.71875 12.511719 C 23.722656 12.523438 23.710938 12.53125 23.703125 12.53125 Z M 23.703125 12.53125 "/>
<path style=" stroke:none;fill-rule:nonzero;fill:rgb(7.839966%,8.628845%,13.729858%);fill-opacity:1;" d="M 21.628906 11.675781 C 21.53125 11.84375 21.417969 12.003906 21.277344 12.144531 C 21.144531 12.28125 20.988281 12.40625 20.824219 12.515625 C 20.660156 12.621094 20.488281 12.714844 20.308594 12.789062 C 20.128906 12.867188 19.945312 12.925781 19.75 12.960938 C 19.734375 12.964844 19.726562 12.957031 19.722656 12.941406 C 19.722656 12.925781 19.726562 12.914062 19.734375 12.910156 C 19.914062 12.851562 20.09375 12.78125 20.265625 12.695312 C 20.433594 12.617188 20.601562 12.523438 20.761719 12.417969 C 20.921875 12.316406 21.070312 12.199219 21.210938 12.066406 C 21.351562 11.941406 21.46875 11.792969 21.585938 11.644531 C 21.59375 11.632812 21.605469 11.632812 21.617188 11.640625 C 21.632812 11.652344 21.632812 11.664062 21.628906 11.675781 Z M 21.628906 11.675781 "/>
<path style=" stroke:none;fill-rule:nonzero;fill:rgb(7.839966%,8.628845%,13.729858%);fill-opacity:1;" d="M 17.261719 12.746094 C 17.3125 12.765625 17.351562 12.804688 17.394531 12.847656 C 17.433594 12.878906 17.46875 12.921875 17.503906 12.964844 C 17.570312 13.046875 17.636719 13.136719 17.691406 13.230469 C 17.746094 13.324219 17.789062 13.425781 17.832031 13.523438 C 17.867188 13.625 17.894531 13.734375 17.921875 13.839844 C 17.964844 14.046875 18.003906 14.261719 18.039062 14.472656 C 18.054688 14.574219 18.074219 14.6875 18.089844 14.789062 L 18.109375 14.949219 C 18.113281 15.003906 18.128906 15.054688 18.121094 15.109375 C 18.097656 15.058594 18.097656 15.003906 18.089844 14.949219 L 18.066406 14.789062 L 18.007812 14.472656 C 17.96875 14.261719 17.929688 14.046875 17.886719 13.839844 C 17.867188 13.734375 17.835938 13.628906 17.804688 13.527344 C 17.769531 13.429688 17.726562 13.328125 17.671875 13.238281 C 17.617188 13.144531 17.558594 13.058594 17.488281 12.976562 C 17.453125 12.933594 17.417969 12.894531 17.378906 12.855469 C 17.34375 12.820312 17.304688 12.789062 17.261719 12.746094 Z M 17.261719 12.746094 "/>
<path style=" stroke:none;fill-rule:nonzero;fill:rgb(7.839966%,8.628845%,13.729858%);fill-opacity:1;" d="M 22.394531 13.183594 C 22.5625 13.382812 22.675781 13.617188 22.796875 13.84375 C 22.914062 14.074219 23.023438 14.308594 23.125 14.546875 C 23.324219 15.023438 23.492188 15.523438 23.527344 16.046875 C 23.542969 16.3125 23.523438 16.566406 23.519531 16.824219 L 23.488281 17.597656 C 23.464844 18.113281 23.4375 18.625 23.410156 19.144531 L 23.410156 19.132812 L 23.601562 20.847656 L 23.792969 22.566406 C 23.914062 23.710938 24.039062 24.855469 24.15625 26 L 24.140625 25.964844 C 24.253906 26.082031 24.34375 26.210938 24.414062 26.351562 C 24.484375 26.488281 24.53125 26.640625 24.558594 26.792969 C 24.582031 26.949219 24.585938 27.109375 24.5625 27.261719 C 24.542969 27.417969 24.488281 27.566406 24.410156 27.695312 C 24.433594 27.542969 24.472656 27.402344 24.488281 27.253906 C 24.507812 27.101562 24.503906 26.953125 24.476562 26.808594 C 24.453125 26.664062 24.402344 26.523438 24.332031 26.390625 C 24.265625 26.261719 24.175781 26.136719 24.074219 26.035156 C 24.066406 26.027344 24.058594 26.015625 24.058594 26 C 23.921875 24.859375 23.792969 23.710938 23.664062 22.570312 L 23.46875 20.855469 L 23.285156 19.132812 C 23.285156 19.128906 23.285156 19.125 23.285156 19.125 C 23.324219 18.609375 23.355469 18.097656 23.382812 17.582031 L 23.417969 16.808594 C 23.421875 16.554688 23.441406 16.292969 23.433594 16.042969 C 23.402344 15.539062 23.238281 15.042969 23.050781 14.570312 C 22.957031 14.332031 22.851562 14.097656 22.738281 13.867188 C 22.617188 13.648438 22.488281 13.425781 22.394531 13.183594 Z M 22.394531 13.183594 "/>
<path style=" stroke:none;fill-rule:nonzero;fill:rgb(7.839966%,8.628845%,13.729858%);fill-opacity:1;" d="M 23.179688 16.210938 C 23.179688 16.339844 23.117188 16.402344 22.992188 16.402344 C 22.863281 16.402344 22.800781 16.339844 22.800781 16.210938 C 22.800781 16.085938 22.863281 16.023438 22.992188 16.023438 C 23.117188 16.023438 23.179688 16.085938 23.179688 16.210938 Z M 23.179688 16.210938 "/>
<path style=" stroke:none;fill-rule:nonzero;fill:rgb(7.839966%,8.628845%,13.729858%);fill-opacity:1;" d="M 22.992188 19.207031 C 22.992188 19.335938 22.925781 19.398438 22.800781 19.398438 C 22.675781 19.398438 22.613281 19.335938 22.613281 19.207031 C 22.613281 19.082031 22.675781 19.019531 22.800781 19.019531 C 22.925781 19.019531 22.992188 19.082031 22.992188 19.207031 Z M 22.992188 19.207031 "/>
<path style=" stroke:none;fill-rule:nonzero;fill:rgb(7.839966%,8.628845%,13.729858%);fill-opacity:1;" d="M 23.332031 22.445312 C 23.332031 22.570312 23.269531 22.632812 23.144531 22.632812 C 23.019531 22.632812 22.957031 22.570312 22.957031 22.445312 C 22.957031 22.320312 23.019531 22.253906 23.144531 22.253906 C 23.269531 22.253906 23.332031 22.320312 23.332031 22.445312 Z M 23.332031 22.445312 "/>
<path style=" stroke:none;fill-rule:nonzero;fill:rgb(7.839966%,8.628845%,13.729858%);fill-opacity:1;" d="M 23.671875 25.78125 C 23.671875 25.90625 23.609375 25.972656 23.484375 25.972656 C 23.355469 25.972656 23.292969 25.90625 23.292969 25.78125 C 23.292969 25.65625 23.355469 25.589844 23.484375 25.589844 C 23.609375 25.589844 23.671875 25.65625 23.671875 25.78125 Z M 23.671875 25.78125 "/>
<path style=" stroke:none;fill-rule:nonzero;fill:rgb(98.429871%,53.329468%,45.878601%);fill-opacity:1;" d="M 19.085938 23.921875 C 19.085938 23.921875 18.929688 24.25 18.820312 24.703125 C 18.734375 25.042969 19.066406 25.261719 19.347656 24.914062 C 19.632812 24.566406 19.75 24.15625 19.75 24.15625 Z M 19.085938 23.921875 "/>
<path style=" stroke:none;fill-rule:nonzero;fill:rgb(7.839966%,8.628845%,13.729858%);fill-opacity:0.2;" d="M 19.085938 23.921875 C 19.085938 23.921875 18.929688 24.25 18.820312 24.703125 C 18.734375 25.042969 19.066406 25.261719 19.347656 24.914062 C 19.632812 24.566406 19.75 24.15625 19.75 24.15625 Z M 19.085938 23.921875 "/>
<path style=" stroke:none;fill-rule:nonzero;fill:rgb(98.429871%,53.329468%,45.878601%);fill-opacity:1;" d="M 31.859375 19.972656 L 28.214844 21.117188 L 25.753906 13.238281 L 29.398438 12.09375 Z M 31.859375 19.972656 "/>
<path style=" stroke:none;fill-rule:nonzero;fill:rgb(56.858826%,83.139038%,86.669922%);fill-opacity:1;" d="M 29.488281 12.667969 C 29.488281 12.921875 29.441406 13.164062 29.34375 13.398438 C 29.246094 13.632812 29.109375 13.839844 28.929688 14.019531 C 28.75 14.199219 28.542969 14.339844 28.308594 14.433594 C 28.074219 14.53125 27.832031 14.582031 27.578125 14.582031 C 27.324219 14.582031 27.082031 14.53125 26.847656 14.433594 C 26.613281 14.339844 26.40625 14.199219 26.226562 14.019531 C 26.046875 13.839844 25.910156 13.632812 25.8125 13.398438 C 25.714844 13.164062 25.667969 12.921875 25.667969 12.667969 C 25.667969 12.414062 25.714844 12.167969 25.8125 11.933594 C 25.910156 11.699219 26.046875 11.492188 26.226562 11.3125 C 26.40625 11.132812 26.613281 10.996094 26.847656 10.898438 C 27.082031 10.800781 27.324219 10.75 27.578125 10.75 C 27.832031 10.75 28.074219 10.800781 28.308594 10.898438 C 28.542969 10.996094 28.75 11.132812 28.929688 11.3125 C 29.109375 11.492188 29.246094 11.699219 29.34375 11.933594 C 29.441406 12.167969 29.488281 12.414062 29.488281 12.667969 Z M 29.488281 12.667969 "/>
<path style=" stroke:none;fill-rule:nonzero;fill:rgb(98.429871%,53.329468%,45.878601%);fill-opacity:1;" d="M 31.945312 20.539062 C 31.945312 20.792969 31.898438 21.039062 31.800781 21.273438 C 31.703125 21.507812 31.566406 21.714844 31.386719 21.894531 C 31.207031 22.074219 31 22.210938 30.765625 22.308594 C 30.53125 22.40625 30.289062 22.457031 30.035156 22.457031 C 29.78125 22.457031 29.539062 22.40625 29.304688 22.308594 C 29.070312 22.210938 28.863281 22.074219 28.683594 21.894531 C 28.503906 21.714844 28.367188 21.507812 28.269531 21.273438 C 28.175781 21.039062 28.125 20.792969 28.125 20.539062 C 28.125 20.285156 28.175781 20.042969 28.269531 19.808594 C 28.367188 19.574219 28.503906 19.367188 28.683594 19.1875 C 28.863281 19.007812 29.070312 18.867188 29.304688 18.769531 C 29.539062 18.675781 29.78125 18.625 30.035156 18.625 C 30.289062 18.625 30.53125 18.675781 30.765625 18.769531 C 31 18.867188 31.207031 19.007812 31.386719 19.1875 C 31.566406 19.367188 31.703125 19.574219 31.800781 19.808594 C 31.898438 20.042969 31.945312 20.285156 31.945312 20.539062 Z M 31.945312 20.539062 "/>
<path style=" stroke:none;fill-rule:nonzero;fill:rgb(56.858826%,83.139038%,86.669922%);fill-opacity:1;" d="M 25.75 13.238281 L 29.273438 11.808594 L 31.21875 16.367188 L 26.765625 17.597656 Z M 25.75 13.238281 "/>
<path style=" stroke:none;fill-rule:nonzero;fill:rgb(98.429871%,53.329468%,45.878601%);fill-opacity:1;" d="M 21.800781 22.160156 L 21.472656 19.386719 L 29.882812 18.628906 L 30.226562 22.445312 Z M 21.800781 22.160156 "/>
<path style=" stroke:none;fill-rule:nonzero;fill:rgb(98.429871%,53.329468%,45.878601%);fill-opacity:1;" d="M 31.945312 20.539062 C 31.945312 20.792969 31.898438 21.039062 31.800781 21.273438 C 31.703125 21.507812 31.566406 21.714844 31.386719 21.894531 C 31.207031 22.074219 31 22.210938 30.765625 22.308594 C 30.53125 22.40625 30.289062 22.457031 30.035156 22.457031 C 29.78125 22.457031 29.539062 22.40625 29.304688 22.308594 C 29.070312 22.210938 28.863281 22.074219 28.683594 21.894531 C 28.503906 21.714844 28.367188 21.507812 28.269531 21.273438 C 28.175781 21.039062 28.125 20.792969 28.125 20.539062 C 28.125 20.285156 28.175781 20.042969 28.269531 19.808594 C 28.367188 19.574219 28.503906 19.367188 28.683594 19.1875 C 28.863281 19.007812 29.070312 18.867188 29.304688 18.769531 C 29.539062 18.675781 29.78125 18.625 30.035156 18.625 C 30.289062 18.625 30.53125 18.675781 30.765625 18.769531 C 31 18.867188 31.207031 19.007812 31.386719 19.1875 C 31.566406 19.367188 31.703125 19.574219 31.800781 19.808594 C 31.898438 20.042969 31.945312 20.285156 31.945312 20.539062 Z M 31.945312 20.539062 "/>
<path style=" stroke:none;fill-rule:nonzero;fill:rgb(98.429871%,53.329468%,45.878601%);fill-opacity:1;" d="M 21.472656 19.386719 C 21.472656 19.386719 21.058594 19.519531 20.75 19.847656 C 20.441406 20.175781 19.144531 22.890625 19.054688 23.21875 C 18.964844 23.546875 19.230469 24.789062 19.34375 25.089844 C 19.476562 25.445312 20.230469 25.851562 20.34375 25.859375 C 20.457031 25.871094 20.632812 25.742188 20.375 25.453125 C 20.113281 25.164062 19.964844 24.96875 19.964844 24.96875 L 19.910156 24.460938 C 19.910156 24.460938 20.105469 24.765625 20.253906 24.789062 C 20.402344 24.808594 20.621094 24.53125 20.621094 24.53125 C 20.621094 24.53125 20.851562 24.742188 21.058594 24.625 C 21.269531 24.503906 21.25 24.261719 21.25 24.261719 C 21.25 24.261719 21.738281 24.503906 21.859375 23.675781 C 21.925781 23.253906 22.011719 21.976562 22.011719 21.976562 C 22.011719 21.976562 22.363281 20.152344 21.472656 19.386719 Z M 21.472656 19.386719 "/>
<path style=" stroke:none;fill-rule:nonzero;fill:rgb(98.429871%,53.329468%,45.878601%);fill-opacity:1;" d="M 19.175781 11.246094 C 19.175781 11.246094 19.257812 10.507812 19.179688 10.300781 C 19.097656 10.097656 18.066406 9.03125 18.125 8.882812 C 18.285156 8.476562 18.714844 8.773438 19.089844 9.015625 C 19.460938 9.261719 20.367188 9.5 20.761719 9.539062 C 21.15625 9.578125 24.070312 7.910156 24.449219 8.113281 C 24.828125 8.3125 23.503906 9.136719 23.503906 9.136719 L 22.640625 9.753906 C 22.640625 9.753906 22.96875 10.089844 22.828125 10.378906 C 22.683594 10.667969 22.683594 10.667969 22.683594 10.667969 C 22.683594 10.667969 23 10.980469 22.714844 11.355469 L 21.671875 11.910156 C 21.671875 11.902344 20.382812 13.054688 19.175781 11.246094 Z M 19.175781 11.246094 "/>
<path style=" stroke:none;fill-rule:nonzero;fill:rgb(98.429871%,53.329468%,45.878601%);fill-opacity:1;" d="M 14.429688 14.613281 L 18.140625 13.699219 L 20.109375 21.71875 L 16.398438 22.632812 Z M 14.429688 14.613281 "/>
<path style=" stroke:none;fill-rule:nonzero;fill:rgb(56.858826%,83.139038%,86.669922%);fill-opacity:1;" d="M 18.195312 14.15625 C 18.195312 14.410156 18.144531 14.65625 18.046875 14.890625 C 17.953125 15.125 17.8125 15.332031 17.632812 15.511719 C 17.453125 15.691406 17.25 15.828125 17.015625 15.925781 C 16.78125 16.023438 16.535156 16.070312 16.28125 16.070312 C 16.03125 16.070312 15.785156 16.023438 15.550781 15.925781 C 15.316406 15.828125 15.109375 15.691406 14.933594 15.511719 C 14.753906 15.332031 14.613281 15.125 14.519531 14.890625 C 14.421875 14.65625 14.371094 14.410156 14.371094 14.15625 C 14.371094 13.902344 14.421875 13.660156 14.519531 13.425781 C 14.613281 13.191406 14.753906 12.984375 14.933594 12.804688 C 15.109375 12.625 15.316406 12.484375 15.550781 12.386719 C 15.785156 12.289062 16.03125 12.242188 16.28125 12.242188 C 16.535156 12.242188 16.78125 12.289062 17.015625 12.386719 C 17.25 12.484375 17.453125 12.625 17.632812 12.804688 C 17.8125 12.984375 17.953125 13.191406 18.046875 13.425781 C 18.144531 13.660156 18.195312 13.902344 18.195312 14.15625 Z M 18.195312 14.15625 "/>
<path style=" stroke:none;fill-rule:nonzero;fill:rgb(98.429871%,53.329468%,45.878601%);fill-opacity:1;" d="M 20.160156 22.160156 C 20.160156 22.414062 20.109375 22.660156 20.015625 22.894531 C 19.917969 23.128906 19.777344 23.335938 19.601562 23.515625 C 19.421875 23.695312 19.214844 23.832031 18.980469 23.929688 C 18.746094 24.027344 18.5 24.074219 18.25 24.074219 C 17.996094 24.074219 17.75 24.027344 17.515625 23.929688 C 17.285156 23.832031 17.078125 23.695312 16.898438 23.515625 C 16.71875 23.335938 16.582031 23.128906 16.484375 22.894531 C 16.386719 22.660156 16.335938 22.414062 16.335938 22.160156 C 16.335938 21.90625 16.386719 21.664062 16.484375 21.429688 C 16.582031 21.195312 16.71875 20.988281 16.898438 20.808594 C 17.078125 20.628906 17.285156 20.488281 17.515625 20.390625 C 17.75 20.292969 17.996094 20.246094 18.25 20.246094 C 18.5 20.246094 18.746094 20.292969 18.980469 20.390625 C 19.214844 20.488281 19.421875 20.628906 19.601562 20.808594 C 19.777344 20.988281 19.917969 21.195312 20.015625 21.429688 C 20.109375 21.664062 20.160156 21.90625 20.160156 22.160156 Z M 20.160156 22.160156 "/>
<path style=" stroke:none;fill-rule:nonzero;fill:rgb(56.858826%,83.139038%,86.669922%);fill-opacity:1;" d="M 18.132812 13.699219 L 14.382812 14.300781 L 15.074219 19.207031 L 19.523438 17.953125 Z M 18.132812 13.699219 "/>
<path style=" stroke:none;fill-rule:nonzero;fill:rgb(98.429871%,53.329468%,45.878601%);fill-opacity:1;" d="M 21.671875 11.902344 L 19.175781 11.246094 L 16.4375 21.273438 L 20.125 22.285156 Z M 21.671875 11.902344 "/>
<path style=" stroke:none;fill-rule:nonzero;fill:rgb(98.429871%,53.329468%,45.878601%);fill-opacity:1;" d="M 20.199219 21.761719 C 20.199219 22.015625 20.152344 22.261719 20.054688 22.496094 C 19.957031 22.730469 19.820312 22.9375 19.640625 23.117188 C 19.460938 23.296875 19.253906 23.433594 19.019531 23.53125 C 18.785156 23.628906 18.542969 23.675781 18.289062 23.675781 C 18.035156 23.675781 17.792969 23.628906 17.558594 23.53125 C 17.324219 23.433594 17.117188 23.296875 16.9375 23.117188 C 16.757812 22.9375 16.621094 22.730469 16.523438 22.496094 C 16.425781 22.261719 16.378906 22.015625 16.378906 21.761719 C 16.378906 21.507812 16.425781 21.265625 16.523438 21.027344 C 16.621094 20.792969 16.757812 20.585938 16.9375 20.40625 C 17.117188 20.226562 17.324219 20.089844 17.558594 19.992188 C 17.792969 19.894531 18.035156 19.847656 18.289062 19.847656 C 18.542969 19.847656 18.785156 19.894531 19.019531 19.992188 C 19.253906 20.089844 19.460938 20.226562 19.640625 20.40625 C 19.820312 20.585938 19.957031 20.792969 20.054688 21.027344 C 20.152344 21.265625 20.199219 21.507812 20.199219 21.761719 Z M 20.199219 21.761719 "/>
<path style=" stroke:none;fill-rule:nonzero;fill:rgb(7.839966%,8.628845%,13.729858%);fill-opacity:1;" d="M 22.65625 9.773438 C 22.621094 9.8125 22.585938 9.84375 22.546875 9.867188 C 22.507812 9.898438 22.46875 9.921875 22.429688 9.945312 C 22.386719 9.964844 22.34375 9.988281 22.296875 10.003906 C 22.253906 10.019531 22.210938 10.035156 22.160156 10.042969 C 22.140625 10.046875 22.121094 10.035156 22.121094 10.011719 C 22.121094 10.003906 22.121094 9.992188 22.128906 9.984375 C 22.164062 9.945312 22.199219 9.917969 22.238281 9.886719 C 22.277344 9.859375 22.320312 9.839844 22.359375 9.8125 C 22.402344 9.792969 22.441406 9.773438 22.488281 9.757812 C 22.53125 9.742188 22.578125 9.730469 22.628906 9.722656 C 22.640625 9.722656 22.65625 9.734375 22.660156 9.75 C 22.667969 9.757812 22.660156 9.769531 22.65625 9.773438 Z M 22.65625 9.773438 "/>
<path style=" stroke:none;fill-rule:nonzero;fill:rgb(7.839966%,8.628845%,13.729858%);fill-opacity:1;" d="M 22.691406 10.65625 C 22.671875 10.6875 22.648438 10.710938 22.621094 10.738281 C 22.597656 10.761719 22.566406 10.777344 22.542969 10.796875 C 22.511719 10.8125 22.484375 10.824219 22.453125 10.835938 C 22.421875 10.847656 22.386719 10.855469 22.347656 10.855469 C 22.328125 10.855469 22.308594 10.839844 22.308594 10.820312 C 22.308594 10.8125 22.308594 10.804688 22.3125 10.800781 C 22.332031 10.769531 22.359375 10.746094 22.382812 10.722656 C 22.410156 10.695312 22.4375 10.679688 22.464844 10.667969 C 22.492188 10.652344 22.523438 10.636719 22.550781 10.625 C 22.582031 10.617188 22.617188 10.605469 22.65625 10.605469 C 22.675781 10.605469 22.691406 10.621094 22.691406 10.636719 C 22.695312 10.648438 22.695312 10.652344 22.691406 10.65625 Z M 22.691406 10.65625 "/>
<path style=" stroke:none;fill-rule:nonzero;fill:rgb(7.839966%,8.628845%,13.729858%);fill-opacity:1;" d="M 19.097656 8.886719 C 19.488281 9.0625 19.878906 9.230469 20.277344 9.359375 C 20.476562 9.414062 20.6875 9.5 20.867188 9.441406 C 21.058594 9.386719 21.257812 9.296875 21.453125 9.214844 C 21.847656 9.050781 22.230469 8.867188 22.613281 8.6875 L 23.773438 8.148438 C 23.785156 8.136719 23.804688 8.148438 23.816406 8.164062 C 23.828125 8.179688 23.816406 8.199219 23.800781 8.207031 C 23.429688 8.417969 23.050781 8.617188 22.671875 8.804688 C 22.289062 8.996094 21.90625 9.179688 21.511719 9.351562 C 21.3125 9.429688 21.121094 9.515625 20.902344 9.574219 C 20.875 9.585938 20.839844 9.585938 20.8125 9.589844 C 20.78125 9.59375 20.75 9.597656 20.722656 9.59375 C 20.660156 9.59375 20.605469 9.578125 20.550781 9.570312 C 20.441406 9.542969 20.339844 9.507812 20.238281 9.476562 C 19.835938 9.324219 19.449219 9.136719 19.074219 8.929688 C 19.058594 8.921875 19.054688 8.90625 19.066406 8.890625 C 19.070312 8.886719 19.089844 8.882812 19.097656 8.886719 Z M 19.097656 8.886719 "/>
<path style=" stroke:none;fill-rule:nonzero;fill:rgb(7.839966%,8.628845%,13.729858%);fill-opacity:1;" d="M 17.195312 18.625 C 17.164062 18.804688 17.125 18.984375 17.085938 19.164062 C 17.042969 19.34375 17 19.519531 16.949219 19.699219 C 16.898438 19.871094 16.851562 20.050781 16.796875 20.226562 C 16.742188 20.402344 16.6875 20.574219 16.621094 20.746094 C 16.617188 20.765625 16.597656 20.769531 16.578125 20.765625 C 16.5625 20.757812 16.550781 20.746094 16.558594 20.730469 C 16.585938 20.550781 16.625 20.371094 16.671875 20.191406 C 16.710938 20.011719 16.761719 19.835938 16.804688 19.664062 C 16.855469 19.488281 16.90625 19.308594 16.960938 19.140625 C 17.015625 18.964844 17.070312 18.789062 17.140625 18.621094 C 17.144531 18.605469 17.160156 18.601562 17.171875 18.605469 C 17.1875 18.601562 17.195312 18.617188 17.195312 18.625 Z M 17.195312 18.625 "/>
<path style=" stroke:none;fill-rule:nonzero;fill:rgb(7.839966%,8.628845%,13.729858%);fill-opacity:1;" d="M 20.433594 20.40625 C 20.164062 21 19.875 21.578125 19.605469 22.171875 C 19.46875 22.464844 19.339844 22.757812 19.21875 23.058594 C 19.160156 23.207031 19.105469 23.359375 19.078125 23.511719 C 19.054688 23.667969 19.058594 23.828125 19.089844 23.980469 C 19.09375 24 19.078125 24.015625 19.058594 24.019531 C 19.042969 24.027344 19.023438 24.015625 19.019531 23.996094 C 18.96875 23.832031 18.957031 23.667969 18.96875 23.496094 C 18.984375 23.328125 19.039062 23.167969 19.089844 23.011719 C 19.199219 22.703125 19.332031 22.40625 19.46875 22.105469 C 19.605469 21.8125 19.75 21.519531 19.90625 21.234375 C 20.058594 20.945312 20.214844 20.660156 20.382812 20.378906 C 20.394531 20.367188 20.40625 20.359375 20.421875 20.371094 C 20.433594 20.375 20.4375 20.394531 20.433594 20.40625 Z M 20.433594 20.40625 "/>
<path style=" stroke:none;fill-rule:nonzero;fill:rgb(7.839966%,8.628845%,13.729858%);fill-opacity:1;" d="M 16.476562 19.671875 C 16.503906 19.503906 16.5625 19.34375 16.660156 19.199219 C 16.707031 19.125 16.765625 19.058594 16.832031 19.003906 C 16.894531 18.945312 16.96875 18.898438 17.050781 18.859375 C 17.085938 18.839844 17.128906 18.855469 17.148438 18.890625 C 17.160156 18.90625 17.160156 18.925781 17.152344 18.945312 L 17.152344 18.949219 C 17.109375 19.105469 17.070312 19.257812 17.019531 19.410156 C 16.96875 19.558594 16.921875 19.710938 16.867188 19.863281 C 16.859375 19.878906 16.839844 19.886719 16.820312 19.882812 C 16.804688 19.878906 16.796875 19.863281 16.800781 19.847656 C 16.824219 19.6875 16.859375 19.53125 16.894531 19.378906 C 16.929688 19.222656 16.96875 19.070312 17.015625 18.914062 L 17.117188 19 C 17.054688 19.035156 16.984375 19.070312 16.929688 19.117188 C 16.871094 19.164062 16.820312 19.21875 16.769531 19.277344 C 16.675781 19.398438 16.597656 19.539062 16.542969 19.6875 C 16.535156 19.703125 16.523438 19.707031 16.507812 19.703125 C 16.480469 19.699219 16.476562 19.683594 16.476562 19.671875 Z M 16.476562 19.671875 "/>
<path style=" stroke:none;fill-rule:nonzero;fill:rgb(7.839966%,8.628845%,13.729858%);fill-opacity:1;" d="M 27.488281 18.804688 C 27.628906 18.773438 27.773438 18.75 27.910156 18.730469 C 28.050781 18.707031 28.195312 18.691406 28.339844 18.675781 C 28.484375 18.660156 28.621094 18.648438 28.765625 18.640625 C 28.910156 18.628906 29.050781 18.625 29.195312 18.628906 C 29.214844 18.628906 29.230469 18.644531 29.230469 18.664062 C 29.230469 18.679688 29.21875 18.695312 29.207031 18.695312 C 29.066406 18.726562 28.921875 18.75 28.78125 18.769531 C 28.644531 18.789062 28.5 18.804688 28.355469 18.820312 C 28.210938 18.835938 28.070312 18.84375 27.925781 18.851562 C 27.78125 18.855469 27.644531 18.859375 27.5 18.859375 C 27.484375 18.859375 27.46875 18.84375 27.46875 18.828125 C 27.46875 18.820312 27.480469 18.808594 27.488281 18.804688 Z M 27.488281 18.804688 "/>
<path style=" stroke:none;fill-rule:nonzero;fill:rgb(7.839966%,8.628845%,13.729858%);fill-opacity:1;" d="M 28.710938 18.339844 C 28.507812 18.429688 28.304688 18.503906 28.101562 18.585938 C 28 18.625 27.894531 18.664062 27.800781 18.710938 C 27.703125 18.753906 27.609375 18.800781 27.511719 18.855469 C 27.5 18.863281 27.480469 18.859375 27.46875 18.84375 C 27.457031 18.828125 27.464844 18.816406 27.472656 18.804688 C 27.546875 18.714844 27.648438 18.648438 27.746094 18.589844 C 27.847656 18.53125 27.953125 18.484375 28.054688 18.445312 C 28.160156 18.40625 28.269531 18.371094 28.378906 18.347656 C 28.488281 18.320312 28.597656 18.296875 28.710938 18.285156 C 28.726562 18.285156 28.742188 18.296875 28.742188 18.3125 C 28.730469 18.324219 28.726562 18.335938 28.710938 18.339844 Z M 28.710938 18.339844 "/>
<path style=" stroke:none;fill-rule:nonzero;fill:rgb(7.839966%,8.628845%,13.729858%);fill-opacity:1;" d="M 25.464844 12.332031 C 25.808594 12.671875 26.128906 13.023438 26.421875 13.410156 C 26.574219 13.597656 26.710938 13.796875 26.835938 14.003906 C 26.960938 14.210938 27.082031 14.421875 27.160156 14.660156 C 27.234375 14.898438 27.257812 15.144531 27.28125 15.382812 C 27.292969 15.628906 27.300781 15.867188 27.285156 16.105469 C 27.265625 16.589844 27.210938 17.070312 27.128906 17.542969 C 27.125 17.5625 27.109375 17.574219 27.089844 17.574219 C 27.070312 17.566406 27.0625 17.554688 27.0625 17.535156 C 27.085938 17.292969 27.105469 17.058594 27.121094 16.820312 C 27.136719 16.582031 27.148438 16.339844 27.148438 16.105469 C 27.15625 15.632812 27.144531 15.148438 27.015625 14.707031 C 26.945312 14.488281 26.835938 14.277344 26.71875 14.074219 C 26.597656 13.867188 26.457031 13.671875 26.320312 13.484375 C 26.179688 13.289062 26.03125 13.105469 25.882812 12.921875 C 25.730469 12.734375 25.578125 12.550781 25.417969 12.371094 C 25.410156 12.363281 25.410156 12.34375 25.417969 12.332031 C 25.433594 12.320312 25.453125 12.320312 25.464844 12.332031 Z M 25.464844 12.332031 "/>
<path style=" stroke:none;fill-rule:nonzero;fill:rgb(7.839966%,8.628845%,13.729858%);fill-opacity:1;" d="M 21.257812 23.890625 C 21.273438 23.921875 21.277344 23.957031 21.285156 23.984375 C 21.289062 24.015625 21.292969 24.046875 21.292969 24.074219 C 21.292969 24.105469 21.296875 24.136719 21.292969 24.164062 C 21.292969 24.195312 21.289062 24.226562 21.285156 24.261719 L 21.285156 24.265625 C 21.277344 24.285156 21.257812 24.296875 21.238281 24.289062 C 21.234375 24.289062 21.222656 24.285156 21.21875 24.28125 C 21.167969 24.226562 21.148438 24.15625 21.148438 24.085938 C 21.148438 24.050781 21.148438 24.015625 21.160156 23.984375 C 21.167969 23.949219 21.179688 23.921875 21.203125 23.890625 C 21.214844 23.875 21.234375 23.875 21.25 23.886719 C 21.253906 23.875 21.257812 23.882812 21.257812 23.890625 Z M 21.257812 23.890625 "/>
<path style=" stroke:none;fill-rule:nonzero;fill:rgb(7.839966%,8.628845%,13.729858%);fill-opacity:1;" d="M 20.640625 24.179688 C 20.65625 24.210938 20.660156 24.246094 20.667969 24.273438 C 20.671875 24.304688 20.675781 24.335938 20.675781 24.363281 C 20.675781 24.394531 20.683594 24.425781 20.675781 24.453125 C 20.675781 24.484375 20.671875 24.515625 20.667969 24.550781 L 20.667969 24.554688 C 20.660156 24.574219 20.640625 24.585938 20.621094 24.578125 C 20.617188 24.578125 20.605469 24.574219 20.601562 24.570312 C 20.550781 24.515625 20.53125 24.445312 20.53125 24.375 C 20.53125 24.339844 20.53125 24.304688 20.542969 24.273438 C 20.550781 24.242188 20.5625 24.210938 20.585938 24.179688 C 20.597656 24.164062 20.617188 24.164062 20.632812 24.175781 C 20.636719 24.171875 20.636719 24.171875 20.640625 24.179688 Z M 20.640625 24.179688 "/>
<path style=" stroke:none;fill-rule:nonzero;fill:rgb(7.839966%,8.628845%,13.729858%);fill-opacity:1;" d="M 19.921875 24.105469 C 19.933594 24.136719 19.941406 24.171875 19.945312 24.199219 C 19.949219 24.230469 19.957031 24.261719 19.957031 24.289062 C 19.957031 24.320312 19.960938 24.351562 19.957031 24.378906 C 19.957031 24.410156 19.949219 24.441406 19.945312 24.476562 L 19.945312 24.480469 C 19.941406 24.5 19.921875 24.507812 19.902344 24.503906 C 19.894531 24.503906 19.886719 24.5 19.878906 24.496094 C 19.832031 24.441406 19.8125 24.371094 19.8125 24.300781 C 19.8125 24.265625 19.8125 24.230469 19.820312 24.199219 C 19.832031 24.164062 19.839844 24.136719 19.867188 24.105469 C 19.875 24.089844 19.894531 24.089844 19.910156 24.101562 C 19.914062 24.097656 19.914062 24.101562 19.921875 24.105469 Z M 19.921875 24.105469 "/>
<path style=" stroke:none;fill-rule:nonzero;fill:rgb(7.839966%,8.628845%,13.729858%);fill-opacity:1;" d="M 22.089844 21.5625 C 22.101562 21.621094 22.105469 21.683594 22.105469 21.738281 C 22.105469 21.796875 22.105469 21.851562 22.101562 21.910156 C 22.09375 21.972656 22.085938 22.027344 22.074219 22.082031 C 22.066406 22.136719 22.050781 22.195312 22.023438 22.25 C 22.015625 22.269531 21.996094 22.277344 21.980469 22.269531 C 21.96875 22.265625 21.960938 22.253906 21.960938 22.246094 C 21.949219 22.1875 21.945312 22.125 21.945312 22.070312 C 21.945312 22.011719 21.949219 21.957031 21.957031 21.898438 C 21.960938 21.835938 21.96875 21.78125 21.984375 21.726562 C 22 21.671875 22.015625 21.613281 22.035156 21.558594 C 22.039062 21.542969 22.058594 21.539062 22.074219 21.542969 C 22.085938 21.546875 22.089844 21.558594 22.089844 21.5625 Z M 22.089844 21.5625 "/>
<path style=" stroke:none;fill-rule:nonzero;fill:rgb(7.839966%,8.628845%,13.729858%);fill-opacity:1;" d="M 30.28125 26.808594 C 30.066406 27.003906 29.820312 27.148438 29.574219 27.28125 C 29.445312 27.34375 29.324219 27.417969 29.195312 27.464844 L 28.800781 27.632812 C 28.667969 27.675781 28.535156 27.722656 28.398438 27.765625 L 28.199219 27.832031 L 27.996094 27.878906 L 27.582031 27.984375 C 27.449219 28.019531 27.304688 28.035156 27.171875 28.066406 L 26.753906 28.140625 C 26.613281 28.164062 26.472656 28.167969 26.335938 28.191406 C 26.054688 28.214844 25.773438 28.257812 25.492188 28.257812 L 24.648438 28.289062 L 23.800781 28.269531 C 23.664062 28.265625 23.519531 28.265625 23.378906 28.253906 L 22.960938 28.21875 L 22.121094 28.144531 L 21.285156 28.023438 C 21.003906 27.980469 20.726562 27.957031 20.453125 27.894531 C 19.902344 27.78125 19.347656 27.679688 18.800781 27.554688 L 17.167969 27.136719 C 17.148438 27.132812 17.140625 27.113281 17.144531 27.097656 C 17.148438 27.078125 17.164062 27.066406 17.183594 27.074219 L 18.820312 27.445312 C 19.367188 27.566406 19.921875 27.65625 20.472656 27.761719 C 21.023438 27.851562 21.582031 27.921875 22.132812 27.996094 L 23.386719 28.101562 C 23.527344 28.109375 23.667969 28.109375 23.804688 28.113281 L 24.640625 28.140625 L 25.476562 28.113281 C 25.757812 28.113281 26.035156 28.074219 26.3125 28.050781 C 26.453125 28.035156 26.59375 28.03125 26.730469 28.003906 L 27.144531 27.941406 C 27.699219 27.859375 28.238281 27.710938 28.765625 27.535156 L 29.15625 27.386719 C 29.285156 27.335938 29.410156 27.273438 29.535156 27.210938 C 29.777344 27.085938 30.027344 26.949219 30.234375 26.769531 C 30.246094 26.757812 30.265625 26.757812 30.273438 26.773438 C 30.289062 26.777344 30.289062 26.796875 30.28125 26.808594 Z M 30.28125 26.808594 "/>
<path style=" stroke:none;fill-rule:nonzero;fill:rgb(7.839966%,8.628845%,13.729858%);fill-opacity:1;" d="M 28.566406 26.902344 C 28.601562 26.953125 28.632812 27.007812 28.65625 27.0625 C 28.683594 27.117188 28.703125 27.171875 28.726562 27.226562 C 28.746094 27.28125 28.761719 27.34375 28.777344 27.402344 C 28.792969 27.460938 28.800781 27.523438 28.800781 27.582031 C 28.800781 27.601562 28.789062 27.617188 28.765625 27.617188 C 28.757812 27.617188 28.742188 27.613281 28.738281 27.601562 C 28.703125 27.550781 28.675781 27.496094 28.652344 27.441406 C 28.628906 27.386719 28.609375 27.332031 28.589844 27.277344 C 28.574219 27.222656 28.554688 27.164062 28.542969 27.101562 C 28.535156 27.042969 28.523438 26.984375 28.519531 26.921875 C 28.519531 26.910156 28.535156 26.894531 28.546875 26.894531 C 28.558594 26.894531 28.5625 26.898438 28.566406 26.902344 Z M 28.566406 26.902344 "/>
<path style=" stroke:none;fill-rule:nonzero;fill:rgb(7.839966%,8.628845%,13.729858%);fill-opacity:1;" d="M 28.832031 26.640625 C 28.871094 26.703125 28.902344 26.769531 28.929688 26.832031 C 28.960938 26.898438 28.984375 26.96875 29.011719 27.03125 C 29.035156 27.101562 29.054688 27.167969 29.070312 27.242188 C 29.085938 27.3125 29.101562 27.382812 29.109375 27.457031 C 29.109375 27.476562 29.09375 27.492188 29.082031 27.492188 C 29.066406 27.492188 29.054688 27.488281 29.050781 27.476562 C 29.011719 27.410156 28.980469 27.347656 28.953125 27.28125 C 28.921875 27.21875 28.898438 27.148438 28.875 27.078125 C 28.855469 27.007812 28.832031 26.9375 28.816406 26.867188 C 28.800781 26.796875 28.789062 26.730469 28.78125 26.652344 C 28.78125 26.640625 28.792969 26.625 28.808594 26.625 C 28.816406 26.625 28.828125 26.628906 28.832031 26.640625 Z M 28.832031 26.640625 "/>
<path style=" stroke:none;fill-rule:nonzero;fill:rgb(7.839966%,8.628845%,13.729858%);fill-opacity:1;" d="M 24.566406 28.660156 C 24.519531 29.0625 24.472656 29.460938 24.417969 29.867188 C 24.363281 30.269531 24.3125 30.667969 24.253906 31.066406 L 24.164062 31.671875 L 24.121094 31.96875 L 24.09375 32.125 L 24.089844 32.144531 C 24.089844 32.148438 24.089844 32.148438 24.085938 32.160156 C 24.082031 32.175781 24.070312 32.1875 24.066406 32.195312 C 24.035156 32.222656 24.015625 32.222656 24 32.234375 C 23.964844 32.242188 23.941406 32.25 23.910156 32.253906 C 23.695312 32.273438 23.496094 32.265625 23.292969 32.253906 C 23.089844 32.242188 22.890625 32.230469 22.6875 32.210938 C 22.652344 32.203125 22.628906 32.179688 22.628906 32.144531 L 22.5625 31.191406 L 22.507812 30.238281 C 22.507812 30.21875 22.523438 30.203125 22.539062 30.203125 C 22.558594 30.203125 22.574219 30.214844 22.574219 30.234375 L 22.671875 31.183594 L 22.761719 32.132812 L 22.703125 32.070312 C 22.902344 32.085938 23.105469 32.097656 23.304688 32.109375 C 23.503906 32.121094 23.707031 32.125 23.894531 32.109375 C 23.921875 32.105469 23.941406 32.105469 23.957031 32.097656 C 23.960938 32.097656 23.96875 32.089844 23.957031 32.105469 C 23.949219 32.109375 23.949219 32.113281 23.945312 32.125 C 23.945312 32.128906 23.945312 32.121094 23.945312 32.121094 L 23.949219 32.105469 L 23.976562 31.960938 L 24.023438 31.660156 L 24.121094 31.0625 C 24.179688 30.664062 24.246094 30.265625 24.3125 29.859375 C 24.378906 29.460938 24.449219 29.0625 24.519531 28.664062 C 24.523438 28.648438 24.53125 28.636719 24.554688 28.636719 C 24.558594 28.628906 24.566406 28.644531 24.566406 28.660156 Z M 24.566406 28.660156 "/>
<path style=" stroke:none;fill-rule:nonzero;fill:rgb(7.839966%,8.628845%,13.729858%);fill-opacity:1;" d="M 20.402344 33.027344 C 20.894531 32.96875 21.394531 32.914062 21.890625 32.867188 L 23.378906 32.726562 L 24.867188 32.609375 C 25.363281 32.574219 25.863281 32.539062 26.359375 32.511719 C 26.378906 32.511719 26.394531 32.527344 26.394531 32.542969 C 26.394531 32.5625 26.382812 32.578125 26.363281 32.578125 C 25.871094 32.636719 25.375 32.6875 24.875 32.738281 L 23.386719 32.871094 L 21.902344 32.988281 C 21.402344 33.023438 20.90625 33.050781 20.40625 33.078125 C 20.394531 33.078125 20.378906 33.066406 20.378906 33.050781 C 20.378906 33.042969 20.386719 33.03125 20.402344 33.027344 Z M 20.402344 33.027344 "/>
<path style=" stroke:none;fill-rule:nonzero;fill:rgb(7.839966%,8.628845%,13.729858%);fill-opacity:1;" d="M 21.351562 33.386719 C 21.597656 33.28125 21.839844 33.175781 22.085938 33.082031 C 22.328125 32.980469 22.574219 32.882812 22.820312 32.789062 C 22.828125 32.789062 22.835938 32.78125 22.839844 32.78125 C 23.128906 32.757812 23.421875 32.726562 23.710938 32.703125 C 23.71875 32.703125 23.722656 32.703125 23.726562 32.703125 C 24.070312 32.757812 24.410156 32.808594 24.75 32.871094 C 25.09375 32.933594 25.433594 32.992188 25.773438 33.0625 C 25.792969 33.066406 25.800781 33.082031 25.796875 33.101562 C 25.792969 33.117188 25.777344 33.132812 25.761719 33.125 C 25.417969 33.089844 25.074219 33.046875 24.730469 32.996094 C 24.386719 32.953125 24.046875 32.898438 23.707031 32.847656 L 23.722656 32.847656 C 23.433594 32.871094 23.140625 32.890625 22.847656 32.917969 L 22.867188 32.914062 C 22.617188 33.007812 22.367188 33.089844 22.121094 33.179688 C 21.871094 33.269531 21.621094 33.355469 21.367188 33.4375 C 21.351562 33.441406 21.339844 33.429688 21.332031 33.414062 C 21.332031 33.40625 21.339844 33.390625 21.351562 33.386719 Z M 21.351562 33.386719 "/>
<path style=" stroke:none;fill-rule:nonzero;fill:rgb(7.839966%,8.628845%,13.729858%);fill-opacity:1;" d="M 28.148438 27.761719 C 28.179688 27.875 28.21875 27.992188 28.273438 28.09375 C 28.300781 28.148438 28.328125 28.199219 28.355469 28.253906 C 28.382812 28.304688 28.414062 28.355469 28.449219 28.402344 C 28.578125 28.597656 28.738281 28.777344 28.929688 28.90625 C 29.121094 29.039062 29.335938 29.148438 29.5625 29.203125 L 29.648438 29.226562 L 29.738281 29.242188 L 29.910156 29.273438 C 30.03125 29.285156 30.152344 29.292969 30.269531 29.300781 L 30.273438 29.300781 C 30.292969 29.300781 30.304688 29.320312 30.304688 29.335938 C 30.304688 29.351562 30.289062 29.367188 30.273438 29.367188 C 30.152344 29.371094 30.03125 29.375 29.90625 29.375 L 29.722656 29.355469 L 29.628906 29.347656 L 29.539062 29.328125 C 29.480469 29.3125 29.417969 29.296875 29.355469 29.28125 L 29.179688 29.210938 C 29.121094 29.191406 29.066406 29.15625 29.011719 29.128906 C 28.957031 29.09375 28.902344 29.066406 28.851562 29.027344 C 28.648438 28.878906 28.472656 28.6875 28.347656 28.472656 C 28.226562 28.257812 28.140625 28.019531 28.105469 27.769531 C 28.105469 27.757812 28.117188 27.742188 28.128906 27.742188 C 28.136719 27.734375 28.144531 27.746094 28.148438 27.761719 Z M 28.148438 27.761719 "/>
<path style=" stroke:none;fill-rule:nonzero;fill:rgb(7.839966%,8.628845%,13.729858%);fill-opacity:1;" d="M 17.179688 29.167969 C 17.296875 29.167969 17.417969 29.164062 17.53125 29.140625 C 17.589844 29.132812 17.648438 29.121094 17.707031 29.113281 C 17.761719 29.097656 17.820312 29.082031 17.875 29.066406 C 18.097656 28.996094 18.3125 28.894531 18.488281 28.742188 C 18.667969 28.597656 18.824219 28.425781 18.945312 28.21875 L 18.996094 28.144531 L 19.035156 28.066406 L 19.113281 27.90625 C 19.164062 27.796875 19.199219 27.679688 19.242188 27.570312 L 19.242188 27.566406 C 19.25 27.550781 19.269531 27.542969 19.289062 27.546875 C 19.304688 27.550781 19.3125 27.570312 19.308594 27.585938 C 19.277344 27.707031 19.253906 27.824219 19.214844 27.945312 L 19.144531 28.121094 L 19.109375 28.203125 L 19.066406 28.285156 C 19.035156 28.339844 19.003906 28.394531 18.96875 28.449219 L 18.855469 28.597656 C 18.820312 28.648438 18.777344 28.695312 18.726562 28.738281 C 18.679688 28.785156 18.636719 28.828125 18.585938 28.863281 C 18.386719 29.019531 18.160156 29.132812 17.914062 29.191406 C 17.671875 29.253906 17.421875 29.273438 17.171875 29.230469 C 17.160156 29.230469 17.148438 29.21875 17.148438 29.203125 C 17.148438 29.175781 17.160156 29.167969 17.179688 29.167969 Z M 17.179688 29.167969 "/>
<path style=" stroke:none;fill-rule:nonzero;fill:rgb(7.839966%,8.628845%,13.729858%);fill-opacity:1;" d="M 10.472656 63.304688 C 10.707031 63.410156 10.945312 63.5 11.1875 63.574219 C 11.308594 63.617188 11.433594 63.648438 11.554688 63.683594 L 11.929688 63.78125 C 12.425781 63.894531 12.933594 63.96875 13.441406 63.984375 C 13.695312 64.003906 13.949219 63.988281 14.203125 63.984375 C 14.328125 63.972656 14.457031 63.960938 14.582031 63.949219 C 14.644531 63.945312 14.707031 63.941406 14.769531 63.929688 L 14.960938 63.894531 C 15.085938 63.871094 15.214844 63.855469 15.335938 63.824219 L 15.707031 63.726562 C 15.765625 63.710938 15.832031 63.695312 15.890625 63.675781 L 16.070312 63.609375 L 16.433594 63.480469 L 16.4375 63.480469 C 16.457031 63.476562 16.472656 63.484375 16.480469 63.5 C 16.488281 63.515625 16.480469 63.535156 16.460938 63.539062 C 15.988281 63.746094 15.503906 63.933594 14.988281 64.019531 L 14.800781 64.058594 C 14.734375 64.070312 14.671875 64.074219 14.605469 64.085938 C 14.476562 64.097656 14.347656 64.113281 14.21875 64.125 C 13.960938 64.132812 13.699219 64.148438 13.441406 64.128906 C 12.925781 64.097656 12.40625 64.027344 11.90625 63.894531 C 11.402344 63.765625 10.914062 63.585938 10.457031 63.347656 C 10.441406 63.339844 10.4375 63.320312 10.445312 63.304688 C 10.441406 63.304688 10.457031 63.300781 10.472656 63.304688 Z M 10.472656 63.304688 "/>
<path style=" stroke:none;fill-rule:nonzero;fill:rgb(7.839966%,8.628845%,13.729858%);fill-opacity:1;" d="M 23.710938 64.054688 C 23.9375 64.203125 24.175781 64.339844 24.414062 64.46875 C 24.652344 64.597656 24.890625 64.722656 25.140625 64.835938 C 25.628906 65.066406 26.136719 65.261719 26.65625 65.390625 C 27.175781 65.535156 27.710938 65.582031 28.238281 65.476562 C 28.5 65.425781 28.757812 65.339844 28.996094 65.226562 C 29.234375 65.113281 29.472656 64.972656 29.671875 64.796875 C 29.6875 64.789062 29.707031 64.789062 29.722656 64.800781 C 29.734375 64.816406 29.734375 64.835938 29.722656 64.847656 C 29.320312 65.226562 28.8125 65.484375 28.269531 65.605469 C 27.726562 65.730469 27.148438 65.679688 26.621094 65.535156 C 26.089844 65.390625 25.578125 65.195312 25.089844 64.945312 C 24.597656 64.703125 24.128906 64.421875 23.6875 64.097656 C 23.671875 64.089844 23.671875 64.074219 23.683594 64.058594 C 23.683594 64.050781 23.703125 64.042969 23.710938 64.054688 Z M 23.710938 64.054688 "/>
<path style=" stroke:none;fill-rule:nonzero;fill:rgb(99.21875%,52.938843%,10.5896%);fill-opacity:1;" d="M 52.800781 2.355469 L 50.097656 2.355469 L 37.226562 74.929688 L 39.929688 74.929688 Z M 52.800781 2.355469 "/>
<path style=" stroke:none;fill-rule:nonzero;fill:rgb(99.21875%,52.938843%,10.5896%);fill-opacity:1;" d="M 50.054688 2.355469 L 52.753906 2.355469 L 57.074219 74.929688 L 54.371094 74.929688 Z M 50.054688 2.355469 "/>
<path style=" stroke:none;fill-rule:nonzero;fill:rgb(99.21875%,52.938843%,10.5896%);fill-opacity:1;" d="M 51.132812 4.523438 L 54.28125 4.523438 L 67.183594 74.929688 L 64.035156 74.929688 Z M 51.132812 4.523438 "/>
<g clip-path="url(#clip2)" clip-rule="nonzero">
<path style=" stroke:none;fill-rule:nonzero;fill:rgb(94.509888%,85.879517%,80.778503%);fill-opacity:1;" d="M 65.21875 54.730469 L 32.050781 54.730469 L 36.085938 8.269531 L 69.257812 8.269531 Z M 65.21875 54.730469 "/>
</g>
<path style=" stroke:none;fill-rule:nonzero;fill:rgb(7.839966%,8.628845%,13.729858%);fill-opacity:0.2;" d="M 65.8125 15.210938 L 37.253906 15.210938 C 37.214844 15.210938 37.179688 15.175781 37.179688 15.132812 C 37.179688 15.09375 37.214844 15.058594 37.253906 15.058594 L 65.8125 15.058594 C 65.851562 15.058594 65.886719 15.09375 65.886719 15.132812 C 65.886719 15.179688 65.851562 15.210938 65.8125 15.210938 Z M 65.8125 15.210938 "/>
<path style=" stroke:none;fill-rule:nonzero;fill:rgb(7.839966%,8.628845%,13.729858%);fill-opacity:0.2;" d="M 65.410156 20.484375 L 36.851562 20.484375 C 36.8125 20.484375 36.777344 20.449219 36.777344 20.410156 C 36.777344 20.371094 36.8125 20.335938 36.851562 20.335938 L 65.410156 20.335938 C 65.449219 20.335938 65.484375 20.371094 65.484375 20.410156 C 65.484375 20.449219 65.449219 20.484375 65.410156 20.484375 Z M 65.410156 20.484375 "/>
<path style=" stroke:none;fill-rule:nonzero;fill:rgb(7.839966%,8.628845%,13.729858%);fill-opacity:0.2;" d="M 65.011719 25.757812 L 36.453125 25.757812 C 36.414062 25.757812 36.378906 25.722656 36.378906 25.679688 C 36.378906 25.640625 36.414062 25.605469 36.453125 25.605469 L 65.011719 25.605469 C 65.050781 25.605469 65.085938 25.640625 65.085938 25.679688 C 65.085938 25.722656 65.050781 25.757812 65.011719 25.757812 Z M 65.011719 25.757812 "/>
<path style=" stroke:none;fill-rule:nonzero;fill:rgb(7.839966%,8.628845%,13.729858%);fill-opacity:0.2;" d="M 64.605469 31.03125 L 36.050781 31.03125 C 36.011719 31.03125 35.976562 30.996094 35.976562 30.957031 C 35.976562 30.917969 36.011719 30.882812 36.050781 30.882812 L 64.605469 30.882812 C 64.648438 30.882812 64.683594 30.917969 64.683594 30.957031 C 64.683594 30.996094 64.652344 31.03125 64.605469 31.03125 Z M 64.605469 31.03125 "/>
<path style=" stroke:none;fill-rule:nonzero;fill:rgb(7.839966%,8.628845%,13.729858%);fill-opacity:0.2;" d="M 64.210938 36.304688 L 35.652344 36.304688 C 35.613281 36.304688 35.578125 36.269531 35.578125 36.226562 C 35.578125 36.1875 35.613281 36.152344 35.652344 36.152344 L 64.210938 36.152344 C 64.25 36.152344 64.285156 36.1875 64.285156 36.226562 C 64.285156 36.269531 64.25 36.304688 64.210938 36.304688 Z M 64.210938 36.304688 "/>
<path style=" stroke:none;fill-rule:nonzero;fill:rgb(7.839966%,8.628845%,13.729858%);fill-opacity:0.2;" d="M 63.8125 41.574219 L 35.25 41.574219 C 35.210938 41.574219 35.175781 41.539062 35.175781 41.5 C 35.175781 41.460938 35.210938 41.425781 35.25 41.425781 L 63.804688 41.425781 C 63.847656 41.425781 63.882812 41.460938 63.882812 41.5 C 63.882812 41.542969 63.851562 41.574219 63.8125 41.574219 Z M 63.8125 41.574219 "/>
<path style=" stroke:none;fill-rule:nonzero;fill:rgb(7.839966%,8.628845%,13.729858%);fill-opacity:0.2;" d="M 63.40625 46.851562 L 34.851562 46.851562 C 34.8125 46.851562 34.777344 46.816406 34.777344 46.773438 C 34.777344 46.734375 34.8125 46.699219 34.851562 46.699219 L 63.40625 46.699219 C 63.449219 46.699219 63.484375 46.734375 63.484375 46.773438 C 63.484375 46.816406 63.449219 46.851562 63.40625 46.851562 Z M 63.40625 46.851562 "/>
<path style=" stroke:none;fill-rule:nonzero;fill:rgb(7.839966%,8.628845%,13.729858%);fill-opacity:0.2;" d="M 61.324219 48.933594 C 61.324219 48.933594 61.320312 48.933594 61.320312 48.933594 C 61.277344 48.929688 61.25 48.894531 61.25 48.855469 L 63.980469 12.871094 C 63.984375 12.832031 64.019531 12.800781 64.058594 12.800781 C 64.101562 12.804688 64.128906 12.839844 64.128906 12.878906 L 61.398438 48.863281 C 61.394531 48.90625 61.363281 48.933594 61.324219 48.933594 Z M 61.324219 48.933594 "/>
<path style=" stroke:none;fill-rule:nonzero;fill:rgb(7.839966%,8.628845%,13.729858%);fill-opacity:0.2;" d="M 57.28125 48.933594 C 57.28125 48.933594 57.277344 48.933594 57.277344 48.933594 C 57.238281 48.929688 57.207031 48.894531 57.207031 48.855469 L 59.941406 12.871094 C 59.945312 12.832031 59.980469 12.800781 60.019531 12.800781 C 60.058594 12.804688 60.089844 12.839844 60.089844 12.878906 L 57.359375 48.863281 C 57.359375 48.90625 57.324219 48.933594 57.28125 48.933594 Z M 57.28125 48.933594 "/>
<path style=" stroke:none;fill-rule:nonzero;fill:rgb(7.839966%,8.628845%,13.729858%);fill-opacity:0.2;" d="M 53.246094 48.933594 C 53.246094 48.933594 53.242188 48.933594 53.242188 48.933594 C 53.203125 48.929688 53.171875 48.894531 53.171875 48.855469 L 55.90625 12.871094 C 55.910156 12.832031 55.945312 12.800781 55.984375 12.800781 C 56.023438 12.804688 56.054688 12.839844 56.054688 12.878906 L 53.324219 48.863281 C 53.316406 48.90625 53.289062 48.933594 53.246094 48.933594 Z M 53.246094 48.933594 "/>
<path style=" stroke:none;fill-rule:nonzero;fill:rgb(7.839966%,8.628845%,13.729858%);fill-opacity:0.2;" d="M 49.207031 48.933594 C 49.207031 48.933594 49.203125 48.933594 49.203125 48.933594 C 49.164062 48.929688 49.132812 48.894531 49.132812 48.855469 L 51.863281 12.871094 C 51.871094 12.832031 51.90625 12.800781 51.945312 12.800781 C 51.984375 12.804688 52.015625 12.839844 52.015625 12.878906 L 49.28125 48.863281 C 49.28125 48.90625 49.246094 48.933594 49.207031 48.933594 Z M 49.207031 48.933594 "/>
<path style=" stroke:none;fill-rule:nonzero;fill:rgb(7.839966%,8.628845%,13.729858%);fill-opacity:0.2;" d="M 45.171875 48.933594 C 45.171875 48.933594 45.167969 48.933594 45.167969 48.933594 C 45.128906 48.929688 45.097656 48.894531 45.097656 48.855469 L 47.828125 12.871094 C 47.835938 12.832031 47.867188 12.800781 47.910156 12.800781 C 47.949219 12.804688 47.976562 12.839844 47.976562 12.878906 L 45.246094 48.863281 C 45.242188 48.90625 45.210938 48.933594 45.171875 48.933594 Z M 45.171875 48.933594 "/>
<path style=" stroke:none;fill-rule:nonzero;fill:rgb(7.839966%,8.628845%,13.729858%);fill-opacity:0.2;" d="M 41.132812 48.933594 C 41.132812 48.933594 41.125 48.933594 41.125 48.933594 C 41.085938 48.929688 41.058594 48.894531 41.058594 48.855469 L 43.789062 12.871094 C 43.792969 12.832031 43.828125 12.800781 43.867188 12.800781 C 43.910156 12.804688 43.9375 12.839844 43.9375 12.878906 L 41.207031 48.863281 C 41.207031 48.90625 41.171875 48.933594 41.132812 48.933594 Z M 41.132812 48.933594 "/>
<path style=" stroke:none;fill-rule:nonzero;fill:rgb(56.858826%,83.139038%,86.669922%);fill-opacity:1;" d="M 46.117188 16.023438 L 41.132812 16.023438 L 38.640625 48.859375 L 43.628906 48.859375 Z M 46.117188 16.023438 "/>
<path style=" stroke:none;fill-rule:nonzero;fill:rgb(99.21875%,52.938843%,10.5896%);fill-opacity:1;" d="M 53.226562 28.773438 L 48.238281 28.773438 L 46.714844 48.859375 L 51.707031 48.859375 Z M 53.226562 28.773438 "/>
<path style=" stroke:none;fill-rule:nonzero;fill:rgb(98.429871%,53.329468%,45.878601%);fill-opacity:1;" d="M 54.789062 48.859375 L 59.78125 48.859375 L 60.296875 41.996094 L 55.3125 41.996094 Z M 54.789062 48.859375 "/>
<path style=" stroke:none;fill-rule:nonzero;fill:rgb(7.839966%,8.628845%,13.729858%);fill-opacity:0.2;" d="M 37.097656 48.933594 C 37.097656 48.933594 37.089844 48.933594 37.089844 48.933594 C 37.050781 48.929688 37.023438 48.894531 37.023438 48.855469 L 39.753906 12.871094 C 39.757812 12.832031 39.792969 12.800781 39.832031 12.800781 C 39.871094 12.804688 39.902344 12.839844 39.902344 12.878906 L 37.171875 48.863281 C 37.167969 48.90625 37.132812 48.933594 37.097656 48.933594 Z M 37.097656 48.933594 "/>
<path style=" stroke:none;fill-rule:nonzero;fill:rgb(7.839966%,8.628845%,13.729858%);fill-opacity:1;" d="M 63.25 48.933594 L 34.691406 48.933594 C 34.671875 48.933594 34.652344 48.925781 34.636719 48.910156 C 34.625 48.894531 34.617188 48.875 34.617188 48.855469 L 37.351562 12.871094 C 37.355469 12.832031 37.386719 12.800781 37.425781 12.800781 L 65.980469 12.800781 C 66 12.800781 66.019531 12.8125 66.035156 12.824219 C 66.050781 12.839844 66.054688 12.859375 66.054688 12.878906 L 63.324219 48.863281 C 63.324219 48.90625 63.289062 48.933594 63.25 48.933594 Z M 34.773438 48.785156 L 63.179688 48.785156 L 65.902344 12.949219 L 37.496094 12.949219 Z M 34.773438 48.785156 "/>
<path style=" stroke:none;fill-rule:nonzero;fill:rgb(7.839966%,8.628845%,13.729858%);fill-opacity:1;" d="M 38.023438 15.210938 L 36.484375 15.210938 C 36.445312 15.210938 36.410156 15.175781 36.410156 15.132812 C 36.410156 15.09375 36.445312 15.058594 36.484375 15.058594 L 38.023438 15.058594 C 38.0625 15.058594 38.097656 15.09375 38.097656 15.132812 C 38.097656 15.179688 38.0625 15.210938 38.023438 15.210938 Z M 38.023438 15.210938 "/>
<path style=" stroke:none;fill-rule:nonzero;fill:rgb(7.839966%,8.628845%,13.729858%);fill-opacity:1;" d="M 37.625 20.484375 L 36.085938 20.484375 C 36.046875 20.484375 36.011719 20.449219 36.011719 20.410156 C 36.011719 20.371094 36.046875 20.335938 36.085938 20.335938 L 37.625 20.335938 C 37.664062 20.335938 37.699219 20.371094 37.699219 20.410156 C 37.699219 20.449219 37.664062 20.484375 37.625 20.484375 Z M 37.625 20.484375 "/>
<path style=" stroke:none;fill-rule:nonzero;fill:rgb(7.839966%,8.628845%,13.729858%);fill-opacity:1;" d="M 37.222656 25.757812 L 35.683594 25.757812 C 35.644531 25.757812 35.609375 25.722656 35.609375 25.679688 C 35.609375 25.640625 35.644531 25.605469 35.683594 25.605469 L 37.222656 25.605469 C 37.261719 25.605469 37.296875 25.640625 37.296875 25.679688 C 37.296875 25.722656 37.265625 25.757812 37.222656 25.757812 Z M 37.222656 25.757812 "/>
<path style=" stroke:none;fill-rule:nonzero;fill:rgb(7.839966%,8.628845%,13.729858%);fill-opacity:1;" d="M 36.824219 31.03125 L 35.285156 31.03125 C 35.246094 31.03125 35.210938 30.996094 35.210938 30.957031 C 35.210938 30.917969 35.246094 30.882812 35.285156 30.882812 L 36.824219 30.882812 C 36.863281 30.882812 36.898438 30.917969 36.898438 30.957031 C 36.898438 30.996094 36.863281 31.03125 36.824219 31.03125 Z M 36.824219 31.03125 "/>
<path style=" stroke:none;fill-rule:nonzero;fill:rgb(7.839966%,8.628845%,13.729858%);fill-opacity:1;" d="M 36.425781 36.304688 L 34.886719 36.304688 C 34.847656 36.304688 34.8125 36.269531 34.8125 36.226562 C 34.8125 36.1875 34.847656 36.152344 34.886719 36.152344 L 36.425781 36.152344 C 36.464844 36.152344 36.5 36.1875 36.5 36.226562 C 36.496094 36.269531 36.464844 36.304688 36.425781 36.304688 Z M 36.425781 36.304688 "/>
<path style=" stroke:none;fill-rule:nonzero;fill:rgb(7.839966%,8.628845%,13.729858%);fill-opacity:1;" d="M 36.023438 41.574219 L 34.484375 41.574219 C 34.445312 41.574219 34.410156 41.539062 34.410156 41.5 C 34.410156 41.460938 34.445312 41.425781 34.484375 41.425781 L 36.023438 41.425781 C 36.0625 41.425781 36.097656 41.460938 36.097656 41.5 C 36.097656 41.542969 36.0625 41.574219 36.023438 41.574219 Z M 36.023438 41.574219 "/>
<path style=" stroke:none;fill-rule:nonzero;fill:rgb(7.839966%,8.628845%,13.729858%);fill-opacity:1;" d="M 35.625 46.851562 L 34.085938 46.851562 C 34.046875 46.851562 34.011719 46.816406 34.011719 46.773438 C 34.011719 46.734375 34.046875 46.699219 34.085938 46.699219 L 35.625 46.699219 C 35.664062 46.699219 35.699219 46.734375 35.699219 46.773438 C 35.699219 46.816406 35.664062 46.851562 35.625 46.851562 Z M 35.625 46.851562 "/>
<path style=" stroke:none;fill-rule:nonzero;fill:rgb(7.839966%,8.628845%,13.729858%);fill-opacity:1;" d="M 61.261719 49.707031 C 61.261719 49.707031 61.257812 49.707031 61.257812 49.707031 C 61.21875 49.703125 61.1875 49.667969 61.1875 49.628906 L 61.308594 48.085938 C 61.3125 48.046875 61.347656 48.011719 61.386719 48.015625 C 61.429688 48.023438 61.457031 48.058594 61.457031 48.097656 L 61.339844 49.636719 C 61.332031 49.675781 61.304688 49.707031 61.261719 49.707031 Z M 61.261719 49.707031 "/>
<path style=" stroke:none;fill-rule:nonzero;fill:rgb(7.839966%,8.628845%,13.729858%);fill-opacity:1;" d="M 57.226562 49.707031 C 57.226562 49.707031 57.222656 49.707031 57.222656 49.707031 C 57.183594 49.703125 57.152344 49.667969 57.152344 49.628906 L 57.273438 48.085938 C 57.277344 48.046875 57.3125 48.011719 57.351562 48.015625 C 57.390625 48.023438 57.421875 48.058594 57.421875 48.097656 L 57.304688 49.636719 C 57.296875 49.675781 57.261719 49.707031 57.226562 49.707031 Z M 57.226562 49.707031 "/>
<path style=" stroke:none;fill-rule:nonzero;fill:rgb(7.839966%,8.628845%,13.729858%);fill-opacity:1;" d="M 53.1875 49.707031 C 53.1875 49.707031 53.183594 49.707031 53.183594 49.707031 C 53.144531 49.703125 53.113281 49.667969 53.113281 49.628906 L 53.234375 48.085938 C 53.238281 48.046875 53.273438 48.011719 53.3125 48.015625 C 53.351562 48.023438 53.382812 48.058594 53.382812 48.097656 L 53.261719 49.636719 C 53.257812 49.675781 53.226562 49.707031 53.1875 49.707031 Z M 53.1875 49.707031 "/>
<path style=" stroke:none;fill-rule:nonzero;fill:rgb(7.839966%,8.628845%,13.729858%);fill-opacity:1;" d="M 49.152344 49.707031 C 49.152344 49.707031 49.148438 49.707031 49.148438 49.707031 C 49.109375 49.703125 49.078125 49.667969 49.078125 49.628906 L 49.199219 48.085938 C 49.203125 48.046875 49.238281 48.011719 49.277344 48.015625 C 49.316406 48.023438 49.347656 48.058594 49.347656 48.097656 L 49.226562 49.636719 C 49.222656 49.675781 49.1875 49.707031 49.152344 49.707031 Z M 49.152344 49.707031 "/>
<path style=" stroke:none;fill-rule:nonzero;fill:rgb(7.839966%,8.628845%,13.729858%);fill-opacity:1;" d="M 45.113281 49.707031 C 45.113281 49.707031 45.109375 49.707031 45.109375 49.707031 C 45.066406 49.703125 45.039062 49.667969 45.039062 49.628906 L 45.15625 48.085938 C 45.164062 48.046875 45.195312 48.011719 45.238281 48.015625 C 45.277344 48.023438 45.304688 48.058594 45.304688 48.097656 L 45.1875 49.636719 C 45.183594 49.675781 45.152344 49.707031 45.113281 49.707031 Z M 45.113281 49.707031 "/>
<path style=" stroke:none;fill-rule:nonzero;fill:rgb(7.839966%,8.628845%,13.729858%);fill-opacity:1;" d="M 41.078125 49.707031 C 41.078125 49.707031 41.070312 49.707031 41.070312 49.707031 C 41.03125 49.703125 41.003906 49.667969 41.003906 49.628906 L 41.121094 48.085938 C 41.125 48.046875 41.160156 48.011719 41.203125 48.015625 C 41.242188 48.023438 41.269531 48.058594 41.269531 48.097656 L 41.152344 49.636719 C 41.148438 49.675781 41.113281 49.707031 41.078125 49.707031 Z M 41.078125 49.707031 "/>
<path style=" stroke:none;fill-rule:nonzero;fill:rgb(7.839966%,8.628845%,13.729858%);fill-opacity:1;" d="M 37.035156 49.707031 C 37.035156 49.707031 37.03125 49.707031 37.03125 49.707031 C 36.992188 49.703125 36.960938 49.667969 36.960938 49.628906 L 37.082031 48.085938 C 37.085938 48.046875 37.125 48.015625 37.160156 48.015625 C 37.199219 48.023438 37.230469 48.058594 37.230469 48.097656 L 37.113281 49.636719 C 37.105469 49.675781 37.078125 49.707031 37.035156 49.707031 Z M 37.035156 49.707031 "/>
<path style=" stroke:none;fill-rule:nonzero;fill:rgb(99.21875%,52.938843%,10.5896%);fill-opacity:1;" d="M 47.183594 6.964844 L 56.980469 6.964844 L 56.980469 8.269531 L 47.183594 8.269531 Z M 47.183594 6.964844 "/>
<path style=" stroke:none;fill-rule:nonzero;fill:rgb(99.21875%,52.938843%,10.5896%);fill-opacity:1;" d="M 30.261719 53.425781 L 66.578125 53.425781 L 66.578125 55.414062 L 30.261719 55.414062 Z M 30.261719 53.425781 "/>
<path style=" stroke:none;fill-rule:nonzero;fill:rgb(7.839966%,8.628845%,13.729858%);fill-opacity:0.298;" d="M 43.390625 55.40625 L 42.941406 57.839844 L 40.257812 57.839844 L 40.6875 55.40625 Z M 53.222656 55.40625 L 53.351562 57.839844 L 56.054688 57.839844 L 55.925781 55.40625 Z M 60.457031 55.40625 L 60.90625 57.839844 L 64.054688 57.839844 L 63.605469 55.40625 Z M 52.90625 4.664062 L 54.527344 6.960938 L 53.246094 6.960938 Z M 56.980469 9.074219 L 48.152344 9.074219 L 47.183594 8.261719 L 58.070312 8.261719 Z M 56.980469 9.074219 "/>
<path style="fill:none;stroke-width:1;stroke-linecap:round;stroke-linejoin:round;stroke:rgb(7.839966%,8.628845%,13.729858%);stroke-opacity:1;stroke-miterlimit:10;" d="M 834.424566 137.068362 L 1031.318203 137.068362 M 948.965163 88.110026 L 956.266243 136.990028 " transform="matrix(0.0497572,0,0,0.049867,5.664968,0.129653)"/>
<path style=" stroke:none;fill-rule:nonzero;fill:rgb(98.429871%,53.329468%,45.878601%);fill-opacity:1;" d="M 63.765625 15.132812 L 61.511719 15.132812 C 60.1875 17.683594 59.777344 18.421875 59.617188 18.800781 L 59.601562 18.800781 C 59.46875 18.292969 59.222656 17.777344 58.3125 15.132812 L 55.972656 15.132812 L 58.078125 19.828125 L 56.476562 19.828125 L 56.386719 20.9375 L 58.289062 20.9375 L 58.21875 21.777344 L 56.316406 21.777344 L 56.226562 22.890625 L 58.128906 22.890625 L 57.898438 25.679688 L 60 25.679688 L 60.230469 22.890625 L 62.175781 22.890625 L 62.265625 21.777344 L 60.316406 21.777344 L 60.386719 20.9375 L 62.332031 20.9375 L 62.421875 19.828125 L 60.796875 19.828125 Z M 63.765625 15.132812 "/>
</g>
</svg>
