<?xml version="1.0" encoding="UTF-8"?>
<svg xmlns="http://www.w3.org/2000/svg" xmlns:xlink="http://www.w3.org/1999/xlink" width="37.5pt" height="37.499999pt" viewBox="0 0 37.5 37.499999" version="1.2">
<defs>
<clipPath id="clip1">
  <path d="M 2 7.5 L 34.972656 7.5 L 34.972656 32.25 L 2 32.25 Z M 2 7.5 "/>
</clipPath>
<clipPath id="clip2">
  <path d="M 2 7.5 L 7 7.5 L 7 32.25 L 2 32.25 Z M 2 7.5 "/>
</clipPath>
<clipPath id="clip3">
  <path d="M 30 7.5 L 34.972656 7.5 L 34.972656 32.25 L 30 32.25 Z M 30 7.5 "/>
</clipPath>
<clipPath id="clip4">
  <path d="M 2 7.5 L 34.972656 7.5 L 34.972656 23 L 2 23 Z M 2 7.5 "/>
</clipPath>
<clipPath id="clip5">
  <path d="M 4 7.5 L 33 7.5 L 33 18 L 4 18 Z M 4 7.5 "/>
</clipPath>
<clipPath id="clip6">
  <path d="M 6 14 L 17 14 L 17 32.25 L 6 32.25 Z M 6 14 "/>
</clipPath>
<clipPath id="clip7">
  <path d="M 6 13 L 19 13 L 19 25 L 6 25 Z M 6 13 "/>
</clipPath>
<clipPath id="clip8">
  <path d="M 16.265625 24.523438 L 18.527344 22.765625 L 6.316406 13.875 L 6.316406 14.664062 L 16.265625 24.519531 Z M 16.265625 24.523438 "/>
</clipPath>
<linearGradient id="linear0" gradientUnits="userSpaceOnUse" x1="-261.914163" y1="1097.14697" x2="-261.679056" y2="1097.14697" gradientTransform="matrix(51.932828,0,0,-51.945175,13608.260263,57010.770846)">
<stop offset="0" style="stop-color:rgb(78.399658%,78.399658%,78.399658%);stop-opacity:1;"/>
<stop offset="0.125" style="stop-color:rgb(78.523254%,78.523254%,78.523254%);stop-opacity:1;"/>
<stop offset="0.25" style="stop-color:rgb(78.773499%,78.773499%,78.773499%);stop-opacity:1;"/>
<stop offset="0.375" style="stop-color:rgb(79.023743%,79.023743%,79.023743%);stop-opacity:1;"/>
<stop offset="0.5" style="stop-color:rgb(79.272461%,79.272461%,79.272461%);stop-opacity:1;"/>
<stop offset="0.625" style="stop-color:rgb(79.522705%,79.522705%,79.522705%);stop-opacity:1;"/>
<stop offset="0.75" style="stop-color:rgb(79.772949%,79.772949%,79.772949%);stop-opacity:1;"/>
<stop offset="0.875" style="stop-color:rgb(80.023193%,80.023193%,80.023193%);stop-opacity:1;"/>
<stop offset="1" style="stop-color:rgb(80.273438%,80.273438%,80.273438%);stop-opacity:1;"/>
</linearGradient>
<clipPath id="clip9">
  <path d="M 16 13 L 31 13 L 31 32.25 L 16 32.25 Z M 16 13 "/>
</clipPath>
<clipPath id="clip10">
  <path d="M 23.996094 32.265625 L 30.738281 32.265625 L 30.738281 13.875 L 18.527344 22.765625 L 16.265625 24.519531 Z M 23.996094 32.265625 "/>
</clipPath>
<linearGradient id="linear1" gradientUnits="userSpaceOnUse" x1="-261.722608" y1="1097.073" x2="-261.443922" y2="1097.073" gradientTransform="matrix(51.932828,0,0,-51.945175,13608.260263,57010.770846)">
<stop offset="0" style="stop-color:rgb(85.099792%,85.099792%,85.099792%);stop-opacity:1;"/>
<stop offset="0.0625" style="stop-color:rgb(85.205078%,85.205078%,85.205078%);stop-opacity:1;"/>
<stop offset="0.125" style="stop-color:rgb(85.420227%,85.420227%,85.420227%);stop-opacity:1;"/>
<stop offset="0.1875" style="stop-color:rgb(85.639954%,85.639954%,85.639954%);stop-opacity:1;"/>
<stop offset="0.25" style="stop-color:rgb(85.858154%,85.858154%,85.858154%);stop-opacity:1;"/>
<stop offset="0.3125" style="stop-color:rgb(86.077881%,86.077881%,86.077881%);stop-opacity:1;"/>
<stop offset="0.375" style="stop-color:rgb(86.297607%,86.297607%,86.297607%);stop-opacity:1;"/>
<stop offset="0.4375" style="stop-color:rgb(86.517334%,86.517334%,86.517334%);stop-opacity:1;"/>
<stop offset="0.5" style="stop-color:rgb(86.735535%,86.735535%,86.735535%);stop-opacity:1;"/>
<stop offset="0.5625" style="stop-color:rgb(86.955261%,86.955261%,86.955261%);stop-opacity:1;"/>
<stop offset="0.625" style="stop-color:rgb(87.174988%,87.174988%,87.174988%);stop-opacity:1;"/>
<stop offset="0.6875" style="stop-color:rgb(87.393188%,87.393188%,87.393188%);stop-opacity:1;"/>
<stop offset="0.75" style="stop-color:rgb(87.612915%,87.612915%,87.612915%);stop-opacity:1;"/>
<stop offset="0.8125" style="stop-color:rgb(87.832642%,87.832642%,87.832642%);stop-opacity:1;"/>
<stop offset="0.875" style="stop-color:rgb(88.052368%,88.052368%,88.052368%);stop-opacity:1;"/>
<stop offset="0.9375" style="stop-color:rgb(88.270569%,88.270569%,88.270569%);stop-opacity:1;"/>
<stop offset="1" style="stop-color:rgb(88.48877%,88.48877%,88.48877%);stop-opacity:1;"/>
</linearGradient>
</defs>
<g id="surface1">
<g clip-path="url(#clip1)" clip-rule="nonzero">
<path style=" stroke:none;fill-rule:nonzero;fill:rgb(91.758728%,91.758728%,91.758728%);fill-opacity:1;" d="M 32.773438 32.265625 L 4.28125 32.265625 C 3.15625 32.265625 2.246094 31.355469 2.246094 30.230469 L 2.246094 9.875 C 2.246094 8.75 3.15625 7.835938 4.28125 7.835938 L 32.773438 7.835938 C 33.898438 7.835938 34.808594 8.75 34.808594 9.875 L 34.808594 30.230469 C 34.808594 31.355469 33.898438 32.265625 32.773438 32.265625 Z M 32.773438 32.265625 "/>
</g>
<g clip-path="url(#clip2)" clip-rule="nonzero">
<path style=" stroke:none;fill-rule:nonzero;fill:rgb(83.529663%,29.798889%,24.708557%);fill-opacity:1;" d="M 6.316406 32.265625 L 4.28125 32.265625 C 3.15625 32.265625 2.246094 31.355469 2.246094 30.230469 L 2.246094 9.875 C 2.246094 8.75 3.15625 7.835938 4.28125 7.835938 C 5.402344 7.835938 6.316406 8.75 6.316406 9.875 Z M 6.316406 32.265625 "/>
</g>
<g clip-path="url(#clip3)" clip-rule="nonzero">
<path style=" stroke:none;fill-rule:nonzero;fill:rgb(71.369934%,20.779419%,14.118958%);fill-opacity:1;" d="M 30.738281 32.265625 L 32.773438 32.265625 C 33.898438 32.265625 34.808594 31.355469 34.808594 30.230469 L 34.808594 9.875 C 34.808594 8.75 33.898438 7.835938 32.773438 7.835938 C 31.648438 7.835938 30.738281 8.75 30.738281 9.875 Z M 30.738281 32.265625 "/>
</g>
<g clip-path="url(#clip4)" clip-rule="nonzero">
<path style=" stroke:none;fill-rule:nonzero;fill:rgb(87.059021%,31.759644%,27.059937%);fill-opacity:1;" d="M 33.9375 11.542969 C 34.859375 10.898438 35.085938 9.628906 34.441406 8.707031 C 33.800781 7.785156 32.527344 7.5625 31.609375 8.203125 L 18.527344 17.726562 L 5.445312 8.203125 C 4.523438 7.5625 3.257812 7.785156 2.613281 8.707031 C 1.96875 9.628906 2.195312 10.898438 3.113281 11.542969 L 3.0625 11.503906 L 18.527344 22.765625 Z M 33.992188 11.503906 L 18.527344 22.765625 Z M 33.992188 11.503906 "/>
</g>
<g clip-path="url(#clip5)" clip-rule="nonzero">
<path style=" stroke:none;fill-rule:nonzero;fill:rgb(93.728638%,93.728638%,93.728638%);fill-opacity:1;" d="M 32.773438 7.835938 C 32.339844 7.835938 31.9375 7.972656 31.609375 8.203125 L 18.527344 17.726562 L 5.445312 8.203125 C 5.105469 7.964844 4.699219 7.835938 4.28125 7.835938 Z M 32.773438 7.835938 "/>
</g>
<path style=" stroke:none;fill-rule:nonzero;fill:rgb(77.648926%,25.489807%,19.60907%);fill-opacity:1;" d="M 6.316406 14.75 L 2.886719 11.351562 L 2.886719 11.355469 C 2.957031 11.421875 3.035156 11.484375 3.113281 11.542969 L 3.0625 11.503906 L 6.316406 13.875 L 6.316406 14.773438 Z M 6.316406 14.75 "/>
<g clip-path="url(#clip6)" clip-rule="nonzero">
<path style=" stroke:none;fill-rule:nonzero;fill:rgb(89.019775%,89.019775%,89.019775%);fill-opacity:1;" d="M 16.265625 24.523438 L 6.316406 32.265625 L 6.316406 14.667969 Z M 16.265625 24.523438 "/>
</g>
<g clip-path="url(#clip7)" clip-rule="nonzero">
<g clip-path="url(#clip8)" clip-rule="nonzero">
<path style=" stroke:none;fill-rule:nonzero;fill:url(#linear0);" d="M 6.316406 24.523438 L 6.316406 13.875 L 18.527344 13.875 L 18.527344 24.523438 Z M 6.316406 24.523438 "/>
</g>
</g>
<g clip-path="url(#clip9)" clip-rule="nonzero">
<g clip-path="url(#clip10)" clip-rule="nonzero">
<path style=" stroke:none;fill-rule:nonzero;fill:url(#linear1);" d="M 16.265625 32.25 L 16.265625 13.875 L 30.738281 13.875 L 30.738281 32.25 Z M 16.265625 32.25 "/>
</g>
</g>
</g>
</svg>
