<?xml version="1.0" encoding="UTF-8"?>
<svg xmlns="http://www.w3.org/2000/svg" xmlns:xlink="http://www.w3.org/1999/xlink" width="37.5pt" height="37.499999pt" viewBox="0 0 37.5 37.499999" version="1.2">
<defs>
<clipPath id="clip1">
  <path d="M 1.875 1.875 L 35.625 1.875 L 35.625 35.625 L 1.875 35.625 Z M 1.875 1.875 "/>
</clipPath>
</defs>
<g id="surface1">
<g clip-path="url(#clip1)" clip-rule="nonzero">
<path style=" stroke:none;fill-rule:nonzero;fill:rgb(14.509583%,82.749939%,39.99939%);fill-opacity:1;" d="M 31.128906 35.613281 L 6.347656 35.613281 C 3.875 35.613281 1.875 33.613281 1.875 31.140625 L 1.875 6.359375 C 1.875 3.886719 3.875 1.886719 6.347656 1.886719 L 31.152344 1.886719 C 33.625 1.886719 35.625 3.886719 35.625 6.359375 L 35.625 31.160156 C 35.601562 33.613281 33.601562 35.613281 31.128906 35.613281 Z M 31.128906 35.613281 "/>
</g>
<path style=" stroke:none;fill-rule:evenodd;fill:rgb(100%,100%,100%);fill-opacity:1;" d="M 26.832031 10.207031 C 24.71875 8.09375 21.910156 6.921875 18.917969 6.921875 C 12.734375 6.921875 7.722656 11.9375 7.722656 18.121094 C 7.722656 20.097656 8.238281 22.03125 9.226562 23.71875 L 7.632812 29.519531 L 13.566406 27.96875 C 15.207031 28.867188 17.050781 29.339844 18.917969 29.339844 C 25.101562 29.339844 30.117188 24.304688 30.117188 18.144531 C 30.09375 15.128906 28.945312 12.320312 26.832031 10.207031 Z M 18.894531 27.453125 C 17.230469 27.453125 15.589844 27.003906 14.152344 26.148438 L 13.816406 25.945312 L 10.285156 26.867188 L 11.230469 23.425781 L 11.003906 23.066406 C 10.082031 21.582031 9.585938 19.875 9.585938 18.121094 C 9.585938 12.992188 13.769531 8.8125 18.894531 8.8125 C 21.390625 8.8125 23.730469 9.777344 25.484375 11.53125 C 27.238281 13.285156 28.203125 15.625 28.203125 18.121094 C 28.203125 23.269531 24.023438 27.453125 18.894531 27.453125 Z M 24 20.457031 C 23.730469 20.324219 22.335938 19.648438 22.089844 19.535156 C 21.839844 19.445312 21.640625 19.402344 21.460938 19.671875 C 21.28125 19.941406 20.738281 20.59375 20.582031 20.773438 C 20.425781 20.953125 20.246094 20.976562 19.976562 20.839844 C 19.707031 20.707031 18.785156 20.414062 17.726562 19.445312 C 16.894531 18.703125 16.332031 17.78125 16.175781 17.511719 C 16.019531 17.242188 16.152344 17.085938 16.289062 16.953125 C 16.421875 16.816406 16.558594 16.613281 16.714844 16.457031 C 16.851562 16.300781 16.894531 16.1875 16.984375 15.984375 C 17.074219 15.804688 17.03125 15.625 16.960938 15.488281 C 16.894531 15.355469 16.332031 13.960938 16.109375 13.421875 C 15.882812 12.882812 15.660156 12.949219 15.476562 12.949219 C 15.320312 12.949219 15.117188 12.949219 14.9375 12.949219 C 14.757812 12.949219 14.445312 13.015625 14.195312 13.308594 C 13.949219 13.578125 13.207031 14.277344 13.207031 15.648438 C 13.207031 17.019531 14.21875 18.34375 14.355469 18.546875 C 14.488281 18.726562 16.332031 21.5625 19.144531 22.773438 C 19.816406 23.066406 20.335938 23.222656 20.738281 23.359375 C 21.414062 23.5625 22.023438 23.539062 22.492188 23.472656 C 23.035156 23.382812 24.15625 22.796875 24.382812 22.144531 C 24.605469 21.492188 24.605469 20.929688 24.539062 20.820312 C 24.472656 20.683594 24.292969 20.617188 24 20.457031 Z M 24 20.457031 "/>
</g>
</svg>
