<svg xmlns="http://www.w3.org/2000/svg" xmlns:xlink="http://www.w3.org/1999/xlink" width="50" height="50" version="1.2" viewBox="0 0 37.5 37.5"><defs><clipPath id="clip1"><path d="M 2 7.5 L 34.972656 7.5 L 34.972656 32.25 L 2 32.25 Z M 2 7.5"/></clipPath><clipPath id="clip2"><path d="M 2 7.5 L 7 7.5 L 7 32.25 L 2 32.25 Z M 2 7.5"/></clipPath><clipPath id="clip3"><path d="M 30 7.5 L 34.972656 7.5 L 34.972656 32.25 L 30 32.25 Z M 30 7.5"/></clipPath><clipPath id="clip4"><path d="M 2 7.5 L 34.972656 7.5 L 34.972656 23 L 2 23 Z M 2 7.5"/></clipPath><clipPath id="clip5"><path d="M 4 7.5 L 33 7.5 L 33 18 L 4 18 Z M 4 7.5"/></clipPath><clipPath id="clip6"><path d="M 6 14 L 17 14 L 17 32.25 L 6 32.25 Z M 6 14"/></clipPath><clipPath id="clip7"><path d="M 6 13 L 19 13 L 19 25 L 6 25 Z M 6 13"/></clipPath><clipPath id="clip8"><path d="M 16.265625 24.523438 L 18.527344 22.765625 L 6.316406 13.875 L 6.316406 14.664062 L 16.265625 24.519531 Z M 16.265625 24.523438"/></clipPath><linearGradient id="linear0" x1="-261.914" x2="-261.679" y1="1097.147" y2="1097.147" gradientTransform="matrix(51.932828,0,0,-51.945175,13608.260263,57010.770846)" gradientUnits="userSpaceOnUse"><stop offset="0" style="stop-color:#c8c8c8;stop-opacity:1"/><stop offset=".125" style="stop-color:#c8c8c8;stop-opacity:1"/><stop offset=".25" style="stop-color:#c9c9c9;stop-opacity:1"/><stop offset=".375" style="stop-color:#cacaca;stop-opacity:1"/><stop offset=".5" style="stop-color:#cacaca;stop-opacity:1"/><stop offset=".625" style="stop-color:#cbcbcb;stop-opacity:1"/><stop offset=".75" style="stop-color:#cbcbcb;stop-opacity:1"/><stop offset=".875" style="stop-color:#ccc;stop-opacity:1"/><stop offset="1" style="stop-color:#cdcdcd;stop-opacity:1"/></linearGradient><clipPath id="clip9"><path d="M 16 13 L 31 13 L 31 32.25 L 16 32.25 Z M 16 13"/></clipPath><clipPath id="clip10"><path d="M 23.996094 32.265625 L 30.738281 32.265625 L 30.738281 13.875 L 18.527344 22.765625 L 16.265625 24.519531 Z M 23.996094 32.265625"/></clipPath><linearGradient id="linear1" x1="-261.723" x2="-261.444" y1="1097.073" y2="1097.073" gradientTransform="matrix(51.932828,0,0,-51.945175,13608.260263,57010.770846)" gradientUnits="userSpaceOnUse"><stop offset="0" style="stop-color:#d9d9d9;stop-opacity:1"/><stop offset=".063" style="stop-color:#d9d9d9;stop-opacity:1"/><stop offset=".125" style="stop-color:#dadada;stop-opacity:1"/><stop offset=".188" style="stop-color:#dadada;stop-opacity:1"/><stop offset=".25" style="stop-color:#dbdbdb;stop-opacity:1"/><stop offset=".313" style="stop-color:#dbdbdb;stop-opacity:1"/><stop offset=".375" style="stop-color:#dcdcdc;stop-opacity:1"/><stop offset=".438" style="stop-color:#ddd;stop-opacity:1"/><stop offset=".5" style="stop-color:#ddd;stop-opacity:1"/><stop offset=".563" style="stop-color:#dedede;stop-opacity:1"/><stop offset=".625" style="stop-color:#dedede;stop-opacity:1"/><stop offset=".688" style="stop-color:#dfdfdf;stop-opacity:1"/><stop offset=".75" style="stop-color:#dfdfdf;stop-opacity:1"/><stop offset=".813" style="stop-color:#e0e0e0;stop-opacity:1"/><stop offset=".875" style="stop-color:#e1e1e1;stop-opacity:1"/><stop offset=".938" style="stop-color:#e1e1e1;stop-opacity:1"/><stop offset="1" style="stop-color:#e2e2e2;stop-opacity:1"/></linearGradient></defs><g id="surface1"><g clip-path="url(#clip1)" clip-rule="nonzero"><path style="stroke:none;fill-rule:nonzero;fill:#eaeaea;fill-opacity:1" d="M 32.773438 32.265625 L 4.28125 32.265625 C 3.15625 32.265625 2.246094 31.355469 2.246094 30.230469 L 2.246094 9.875 C 2.246094 8.75 3.15625 7.835938 4.28125 7.835938 L 32.773438 7.835938 C 33.898438 7.835938 34.808594 8.75 34.808594 9.875 L 34.808594 30.230469 C 34.808594 31.355469 33.898438 32.265625 32.773438 32.265625 Z M 32.773438 32.265625"/></g><g clip-path="url(#clip2)" clip-rule="nonzero"><path style="stroke:none;fill-rule:nonzero;fill:#d54c3f;fill-opacity:1" d="M 6.316406 32.265625 L 4.28125 32.265625 C 3.15625 32.265625 2.246094 31.355469 2.246094 30.230469 L 2.246094 9.875 C 2.246094 8.75 3.15625 7.835938 4.28125 7.835938 C 5.402344 7.835938 6.316406 8.75 6.316406 9.875 Z M 6.316406 32.265625"/></g><g clip-path="url(#clip3)" clip-rule="nonzero"><path style="stroke:none;fill-rule:nonzero;fill:#b63524;fill-opacity:1" d="M 30.738281 32.265625 L 32.773438 32.265625 C 33.898438 32.265625 34.808594 31.355469 34.808594 30.230469 L 34.808594 9.875 C 34.808594 8.75 33.898438 7.835938 32.773438 7.835938 C 31.648438 7.835938 30.738281 8.75 30.738281 9.875 Z M 30.738281 32.265625"/></g><g clip-path="url(#clip4)" clip-rule="nonzero"><path style="stroke:none;fill-rule:nonzero;fill:#de5145;fill-opacity:1" d="M 33.9375 11.542969 C 34.859375 10.898438 35.085938 9.628906 34.441406 8.707031 C 33.800781 7.785156 32.527344 7.5625 31.609375 8.203125 L 18.527344 17.726562 L 5.445312 8.203125 C 4.523438 7.5625 3.257812 7.785156 2.613281 8.707031 C 1.96875 9.628906 2.195312 10.898438 3.113281 11.542969 L 3.0625 11.503906 L 18.527344 22.765625 Z M 33.992188 11.503906 L 18.527344 22.765625 Z M 33.992188 11.503906"/></g><g clip-path="url(#clip5)" clip-rule="nonzero"><path style="stroke:none;fill-rule:nonzero;fill:#efefef;fill-opacity:1" d="M 32.773438 7.835938 C 32.339844 7.835938 31.9375 7.972656 31.609375 8.203125 L 18.527344 17.726562 L 5.445312 8.203125 C 5.105469 7.964844 4.699219 7.835938 4.28125 7.835938 Z M 32.773438 7.835938"/></g><path style="stroke:none;fill-rule:nonzero;fill:#c64132;fill-opacity:1" d="M 6.316406 14.75 L 2.886719 11.351562 L 2.886719 11.355469 C 2.957031 11.421875 3.035156 11.484375 3.113281 11.542969 L 3.0625 11.503906 L 6.316406 13.875 L 6.316406 14.773438 Z M 6.316406 14.75"/><g clip-path="url(#clip6)" clip-rule="nonzero"><path style="stroke:none;fill-rule:nonzero;fill:#e3e3e3;fill-opacity:1" d="M 16.265625 24.523438 L 6.316406 32.265625 L 6.316406 14.667969 Z M 16.265625 24.523438"/></g><g clip-path="url(#clip7)" clip-rule="nonzero"><g clip-path="url(#clip8)" clip-rule="nonzero"><path style="stroke:none;fill-rule:nonzero;fill:url(#linear0)" d="M 6.316406 24.523438 L 6.316406 13.875 L 18.527344 13.875 L 18.527344 24.523438 Z M 6.316406 24.523438"/></g></g><g clip-path="url(#clip9)" clip-rule="nonzero"><g clip-path="url(#clip10)" clip-rule="nonzero"><path style="stroke:none;fill-rule:nonzero;fill:url(#linear1)" d="M 16.265625 32.25 L 16.265625 13.875 L 30.738281 13.875 L 30.738281 32.25 Z M 16.265625 32.25"/></g></g></g></svg>